<?xml version="1.0" encoding="UTF-8"?>
<!DOCTYPE svg PUBLIC "-//W3C//DTD SVG 1.1//EN" "http://www.w3.org/Graphics/SVG/1.1/DTD/svg11.dtd">
<!-- Creator: CorelDRAW X5 -->
<svg xmlns="http://www.w3.org/2000/svg" xml:space="preserve" width="210mm" height="297mm" style="shape-rendering:geometricPrecision; text-rendering:geometricPrecision; image-rendering:optimizeQuality; fill-rule:evenodd; clip-rule:evenodd"
viewBox="0 0 210 297"
 xmlns:xlink="http://www.w3.org/1999/xlink">
 <defs>
  <style type="text/css">
   <![CDATA[
    .fil0 {fill:#046B8D}
    .fil2 {fill:#87B7D0}
    .fil1 {fill:#046B8D;fill-rule:nonzero}
   ]]>
  </style>
 </defs>
 <g id="Слой_x0020_1">
  <metadata id="CorelCorpID_0Corel-Layer"/>
  <path class="fil0" d="M100.531 133.514c12.6473,-0.6938 25.0865,-0.9847 37.388,-1.0092 -11.9584,0.5394 -24.0193,1.3236 -36.1934,2.3788 -0.3661,-0.4714 -0.7653,-0.9282 -1.1946,-1.3696z"/>
  <path class="fil0" d="M175.753 168.95c1.0784,0.6366 1.7594,1.2617 1.3951,1.8572 -24.65,0 -49.2998,0 -73.9498,0 -12.1426,0 -23.5963,-0.2982 -36.7054,-1.6629 -14.0943,-1.4675 -53.2418,-9.04 -41.6607,-21.2012 3.4754,-3.6492 12.3343,-6.5416 25.9032,-8.772 1.1633,-0.176 2.328,-0.3465 3.494,-0.5114 0.1854,0.7632 0.4757,1.5541 0.8749,2.3676 -1.7034,0.2614 -3.4044,0.5299 -5.103,0.806 -13.8915,3.1176 -21.4575,7.4994 -8.2376,16.0349 24.8199,9.1878 53.873,10.0668 76.4036,11.0818 19.1952,0 38.3905,0 57.5857,0z"/>
  <path class="fil0" d="M98.3282 143.189c-0.71,1.1998 -1.8758,2.3133 -3.4068,3.2988 -0.2534,1.6348 -0.7414,3.2081 -1.492,4.6753 0.9421,-0.5666 1.7243,-1.1829 2.3199,-1.8375 -0.3364,0.543 -0.6964,1.0705 -1.079,1.5813 -0.4935,0.3362 -1.0375,0.6576 -1.6273,0.9625 -0.2455,0.4202 -0.5119,0.8317 -0.8045,1.2312l-0.008 0 -0.0398 0.0001 -0.0079 0 -0.008 0 -0.4451 0.0005c0.1469,-0.2632 0.2834,-0.5292 0.415,-0.7965 -0.6466,0.2941 -1.3388,0.57 -2.0717,0.8256 -0.4495,0.0202 -0.898,0.0383 -1.3454,0.054 1.3711,-0.4229 2.6119,-0.9149 3.6922,-1.4638 0.6599,-1.4726 1.1004,-2.9983 1.3471,-4.5508 -2.2115,1.2003 -5.0043,2.1673 -8.1792,2.809 -0.0756,1.0843 -0.1824,2.1792 -0.3221,3.2847l-0.1004 0.0011 -1.3493 0.0067 -0.0237 0.0002 -0.0476 -0.0002c0.0979,-1.0061 0.1746,-2.0062 0.2305,-3 -2.3468,0.3781 -4.8699,0.584 -7.4981,0.584 -1.0311,0 -2.0459,-0.0318 -3.0403,-0.0931 0.0064,0.7075 0.0147,1.4145 0.0242,2.1206l-1.7711 -0.1455 -0.0575 -0.0051c-0.0143,-0.7063 -0.0276,-1.4127 -0.0386,-2.1194 -3.4655,-0.3499 -6.6331,-1.0646 -9.3029,-2.0518 0.1204,1.0516 0.2934,2.0874 0.5187,3.1002l-0.0544 -0.0083 -0.0181 -0.0028 -0.0182 -0.0028 -0.0181 -0.0029 -0.9812 -0.1552 -0.0181 -0.0028 -0.0183 -0.003 -0.0364 -0.006c-0.3307,-1.1327 -0.5693,-2.2908 -0.7226,-3.4645 -2.3263,-1.0103 -4.1869,-2.2446 -5.4169,-3.6281 0.23,1.2707 0.5786,2.5509 1.0549,3.8318 -0.3997,-0.7404 -0.7565,-1.5055 -1.0673,-2.2928 -0.2209,-0.7477 -0.3955,-1.4873 -0.5313,-2.2187 -0.1216,-0.17 -0.2351,-0.3416 -0.3379,-0.5152 -0.0964,-0.3945 -0.1817,-0.7932 -0.2555,-1.1956 0.1251,0.2598 0.2724,0.5157 0.4388,0.7678 -0.2448,-1.7654 -0.2472,-3.4768 -0.04,-5.1191 -0.3075,-0.552 -0.5192,-1.1219 -0.6261,-1.7054 0.0259,-0.2443 0.0573,-0.487 0.0915,-0.7287 0.1408,0.5234 0.3673,1.0344 0.6703,1.5307 0.2792,-1.5889 0.7558,-3.1086 1.4024,-4.5432 -0.371,-0.6872 -0.5687,-1.4042 -0.5687,-2.1417 0,-0.0755 0.0021,-0.1508 0.0062,-0.2259 0.1444,-0.335 0.2968,-0.6659 0.4578,-0.9922 -0.0082,0.1073 -0.0124,0.2149 -0.0124,0.323 0,0.7351 0.1921,1.4498 0.5526,2.135 0.7497,-1.4616 1.678,-2.8272 2.7508,-4.0804 -0.2165,-0.463 -0.331,-0.9413 -0.331,-1.4312 0,-1.2295 0.7159,-2.388 1.98,-3.4057 -0.49,1.0396 -1.3224,1.7559 -1.3224,2.9998 0,0.4064 0.0851,0.8045 0.2468,1.1917 1.1647,-1.2593 2.4798,-2.3939 3.9077,-3.3857 -0.2418,-0.4436 -0.371,-0.907 -0.371,-1.3841 0,-0.302 0.0515,-0.5985 0.1506,-0.8878 -0.9633,0.5125 -1.9002,1.1225 -2.8101,1.8442 0.0855,-0.1475 0.1709,-0.295 0.2564,-0.4425 0.8864,-0.6887 1.7948,-1.2915 2.7251,-1.806 0.0978,-0.1932 0.2171,-0.3825 0.3566,-0.5677 0.3816,-0.2393 0.7712,-0.4675 1.1682,-0.6844 -0.2374,0.2469 -0.4347,0.5034 -0.588,0.7677 1.6049,-0.7734 3.2728,-1.2895 5.0041,-1.5351 0.4085,-0.3938 1.0081,-0.744 1.7494,-1.0299 -0.8609,-0.0268 -1.7632,0.052 -2.7215,0.2715 0.2895,-0.1005 0.5816,-0.1964 0.8764,-0.2855 0.7955,-0.1237 1.553,-0.1681 2.2704,-0.1378 0.9002,-0.2972 1.9716,-0.5058 3.1412,-0.5953 -0.0664,-0.0697 -0.134,-0.1375 -0.2032,-0.2034 0.1018,-0.0065 0.2035,-0.0137 0.3058,-0.0188 0.0998,0.0571 0.1407,0.1253 0.2237,0.1996 0.3007,-0.0162 0.3393,-0.0264 0.9682,-0.0264 0.6289,0 1.8507,0.0772 2.6791,0.2174 0.2327,-0.0817 0.4545,-0.1442 0.6525,-0.1827 0.2776,0.0399 0.5532,0.0855 0.8274,0.1352 -0.267,0.0239 -0.5666,0.0811 -0.8802,0.1625 1.0272,0.2218 1.9118,0.5447 2.5808,0.9375 1.1742,0.0708 2.362,0.2363 3.4156,0.4612 0.3421,0.1504 0.6792,0.309 1.0119,0.4751 -1.3306,-0.3787 -2.6884,-0.6082 -4.0704,-0.7053 0.5533,0.396 0.9008,0.8493 0.9802,1.3339 1.6753,0.4658 3.2879,1.1207 4.8003,1.9454l0.0011 -0.0687c0,-0.7522 -0.3468,-1.4681 -0.9717,-2.1179 0.3971,0.2169 0.7867,0.445 1.1682,0.6843 0.4396,0.5837 0.6785,1.2091 0.6785,1.8597 0,0.0483 -0.0014,0.0963 -0.0041,0.1445 1.3336,0.8063 2.5791,1.7479 3.708,2.8103 -0.2027,-0.8136 -0.7513,-1.5504 -1.1554,-2.3047 1.1026,0.9118 1.7681,1.9342 1.8768,3.0177 1.1427,1.1825 2.1472,2.4971 2.9814,3.9252 0.0043,-0.0773 0.0067,-0.1547 0.0067,-0.2324 0,-0.1081 -0.0042,-0.2157 -0.0125,-0.323 0.161,0.3263 0.3135,0.6572 0.4579,0.9922 0.004,0.0751 0.0061,0.1504 0.0061,0.2259 0,0.0532 -0.0011,0.1061 -0.0032,0.159 0.2562,0.4899 0.4923,0.9922 0.7076,1.506 0.656,2.0404 1.0095,4.2098 1.0095,6.4591 0,0.2074 -0.0032,0.414 -0.0091,0.62 -0.0492,-0.7513 -0.1399,-1.4936 -0.2688,-2.2249 -0.5087,1.5967 -1.8054,3.0749 -3.7017,4.3475 0.2132,1.6168 0.2458,3.2234 0.0758,4.7822 1.6784,-1.0991 2.9057,-2.3542 3.5579,-3.7086 -0.0736,0.4019 -0.1586,0.8001 -0.2547,1.1941zm-14.6772 -23.1559c-0.1187,0.476 -0.4968,0.9194 -1.0732,1.3043 1.3423,0.8639 2.6231,1.8952 3.8184,3.0549 1.0061,-0.6599 1.6916,-1.425 1.9566,-2.2512 -1.441,-0.8381 -3.0113,-1.548 -4.7018,-2.108zm5.5565 2.6298c-0.2952,0.8882 -1.0386,1.7104 -2.1235,2.4186 1.2036,1.2527 2.3095,2.6374 3.2918,4.1111 1.5587,-0.9786 2.5354,-2.131 2.7241,-3.3725 -1.1466,-1.1718 -2.4479,-2.232 -3.8924,-3.1572zm4.5071 3.8128c-0.2782,1.2557 -1.3051,2.4193 -2.8899,3.4099 0.9025,1.4359 1.689,2.9477 2.3325,4.4998 1.74,-1.1352 2.929,-2.4563 3.391,-3.8845 -0.7724,-1.4373 -1.7209,-2.7873 -2.8336,-4.0252zm3.283 4.9124c-0.472,1.4354 -1.6943,2.763 -3.4846,3.9024 0.5685,1.5145 1.0007,3.06 1.2751,4.6034 1.8232,-1.1913 3.1163,-2.5681 3.7195,-4.0572 -0.3308,-1.5442 -0.8375,-3.0346 -1.51,-4.4486zm-14.2972 -12.1403c-1.8764,-0.4333 -3.8207,-0.6299 -5.7823,-0.5627 2.0413,0.169 3.9679,0.5262 5.7678,1.0483 -0.0984,0.4091 -0.4123,0.7907 -0.8919,1.1239 -1.4334,-0.8384 -2.9288,-1.4872 -4.4592,-1.8995 1.3743,0.5033 2.7468,1.2274 4.0814,2.1332 -0.6626,0.3668 -1.5431,0.6576 -2.5584,0.8372 -0.5743,-0.9118 -1.1848,-1.8116 -1.8326,-2.6989 0.5317,0.9083 1.0309,1.8262 1.4993,2.7532 -0.6416,0.0954 -1.3305,0.1474 -2.0478,0.1474 -0.2917,0 -0.5787,-0.0087 -0.8598,-0.0252 0.2045,-1.0217 0.4271,-2.0524 0.6698,-3.0928 -0.4276,1.0215 -0.8171,2.0393 -1.1727,3.054 -1.0033,-0.0957 -1.9157,-0.2948 -2.6728,-0.5698 0.8979,-0.7897 1.8566,-1.5373 2.8784,-2.2353 -1.0828,0.6471 -2.1167,1.3679 -3.0985,2.1513 -0.7467,-0.2981 -1.3226,-0.6737 -1.6577,-1.0968 1.3968,-0.5664 2.8768,-1.0548 4.4376,-1.4538 -1.5833,0.2224 -3.1427,0.5972 -4.6506,1.11 -0.076,-0.1667 -0.1162,-0.339 -0.1162,-0.5153 0,-0.2242 0.0645,-0.4417 0.1858,-0.6498 1.4526,-0.2071 2.9496,-0.2907 4.4884,-0.2856 -1.4216,-0.21 -2.8061,-0.2532 -4.1533,-0.1353 0.3468,-0.3395 0.8534,-0.6421 1.4792,-0.8906 1.3238,0.1195 2.5527,0.4795 3.7403,0.9433 -0.9676,-0.5882 -2.0863,-0.9591 -3.3398,-1.0894 0.7637,-0.2557 1.6698,-0.437 2.659,-0.5182 0.4124,0.4571 0.7679,0.9936 1.0558,1.6237 -0.1162,-0.6587 -0.4611,-1.2237 -0.7564,-1.6518 0.2616,-0.0142 0.3242,-0.0201 0.8835,-0.0201 0.5593,0 1.6565,0.0726 2.3937,0.2038 -0.7799,0.314 -1.6203,0.8121 -2.0746,1.3321 0.5859,-0.4351 1.6287,-0.9265 2.6058,-1.2246 0.8532,0.1942 1.5886,0.4707 2.1487,0.8046 -1.439,-0.0326 -2.8063,0.0931 -3.8197,0.4455 1.4058,-0.1887 2.7917,-0.2682 4.1548,-0.2231 0.4537,0.3363 0.7415,0.7187 0.815,1.1271zm-0.5642 2.3528c-0.7597,0.4056 -1.7583,0.7275 -2.9061,0.9279 0.7503,1.2323 1.434,2.4867 2.0528,3.7625 1.7346,-0.3395 3.2548,-0.8574 4.4455,-1.5014 -1.1367,-1.1982 -2.3444,-2.2719 -3.5922,-3.189zm4.2448 3.8982c-1.2669,0.6857 -2.8786,1.2377 -4.7156,1.6022 0.6861,1.4914 1.2841,3.0121 1.795,4.5619 2.3768,-0.4568 4.4504,-1.1397 6.0619,-1.9819 -0.9432,-1.4958 -2.0018,-2.9017 -3.1413,-4.1822zm3.5732 4.8842c-1.6691,0.8746 -3.8035,1.5838 -6.2445,2.0594 0.5109,1.6545 0.9235,3.3419 1.2391,5.0614 2.8271,-0.589 5.3036,-1.4636 7.2495,-2.5419 -0.6183,-1.5833 -1.3757,-3.1205 -2.2441,-4.5789zm2.5813 5.481c-1.9944,1.0793 -4.5328,1.9537 -7.4299,2.5415 0.2649,1.6279 0.4443,3.2843 0.5382,4.9693 3.1469,-0.6527 5.9083,-1.6311 8.0846,-2.8423 -0.2482,-1.5759 -0.654,-3.1412 -1.1929,-4.6685zm1.336 5.722c-2.1862,1.2419 -4.9822,2.2454 -8.1776,2.9125 0.0516,1.561 0.0314,3.1457 -0.06,4.7543 3.2077,-0.6524 6.0232,-1.637 8.2407,-2.8589 0.1865,-1.589 0.1766,-3.2011 -0.0031,-4.8079zm-15.0434 -18.9932c-0.737,0.1073 -1.528,0.1658 -2.3514,0.1658 -0.3336,0 -0.6617,-0.0096 -0.9831,-0.028 -0.2584,1.3336 -0.4858,2.6521 -0.686,3.9571 0.5454,0.0339 1.1027,0.0515 1.6691,0.0515 1.4138,0 2.7699,-0.1096 4.0294,-0.3104 -0.5032,-1.2952 -1.0618,-2.5741 -1.678,-3.836zm1.9902 4.6603c-1.3564,0.2185 -2.818,0.338 -4.3416,0.338 -0.6094,0 -1.2088,-0.0189 -1.7954,-0.0559 -0.2295,1.5833 -0.4198,3.1469 -0.5763,4.6944 0.7746,0.0458 1.5666,0.0698 2.3718,0.0698 2.0381,0 3.9904,-0.1524 5.7952,-0.4308 -0.4113,-1.56 -0.895,-3.0989 -1.4537,-4.6155zm1.6554 5.4063c-1.8686,0.292 -3.8886,0.4517 -5.997,0.4517 -0.8319,0 -1.6498,-0.0249 -2.4504,-0.073 -0.1655,1.7571 -0.2888,3.4936 -0.3795,5.214 0.9248,0.0585 1.8697,0.0888 2.83,0.0888 2.459,0 4.8155,-0.1981 6.9966,-0.5608 -0.2524,-1.7307 -0.5844,-3.438 -0.9997,-5.1207zm1.124 6.0209c-2.2207,0.3594 -4.6189,0.5557 -7.1209,0.5557 -0.9754,0 -1.9349,-0.03 -2.8745,-0.0876 -0.0784,1.6924 -0.1265,3.3698 -0.153,5.0365 0.9901,0.0618 2.0009,0.0937 3.0277,0.0937 2.6485,0 5.1895,-0.2127 7.548,-0.6024 -0.0732,-1.6857 -0.2147,-3.3513 -0.4273,-4.9959zm0.4661 6.1229c-2.3695,0.3939 -4.9236,0.6092 -7.5868,0.6092 -1.0321,0 -2.0477,-0.0322 -3.0425,-0.0947 -0.0165,1.5836 -0.0154,3.1582 -0.0038,4.728 0.9962,0.0616 2.0132,0.0934 3.0463,0.0934 2.6421,0 5.1778,-0.2083 7.5349,-0.5903 0.0735,-1.5984 0.0915,-3.1806 0.0519,-4.7456zm-9.1631 -22.1175c-1.1494,-0.1083 -2.1954,-0.3325 -3.0658,-0.642 -1.152,1.0708 -2.197,2.2142 -3.1376,3.4144 1.4293,0.5452 3.1485,0.9429 5.0399,1.1405 0.3359,-1.2995 0.7218,-2.6037 1.1635,-3.9129zm-1.3736 4.7525c-2.0255,-0.2138 -3.8668,-0.6427 -5.3981,-1.2303 -1.0211,1.3916 -1.9087,2.8529 -2.6647,4.3624 2.004,0.7347 4.4365,1.272 7.1218,1.5391 0.2519,-1.5513 0.5616,-3.1081 0.941,-4.6712zm-1.0667 5.4745c-2.7678,-0.2784 -5.2779,-0.838 -7.3531,-1.6035 -0.736,1.5724 -1.3335,3.192 -1.7971,4.8348 2.4271,0.9382 5.3491,1.6218 8.5642,1.9594 0.1361,-1.7247 0.326,-3.4545 0.586,-5.1907zm-0.6521 6.0895c-3.2794,-0.3341 -6.2614,-1.0125 -8.742,-1.9446 -0.4037,1.6096 -0.681,3.2369 -0.8346,4.8597 2.6718,1.0177 5.8622,1.7551 9.3606,2.1145 0.034,-1.673 0.1009,-3.3492 0.216,-5.0296zm-0.2341 6.1613c-3.5287,-0.364 -6.7434,-1.1125 -9.4278,-2.1456 -0.0978,1.6168 -0.0731,3.2236 0.0688,4.7988 2.6826,1.0008 5.8738,1.7252 9.3682,2.0788 -0.0208,-1.5757 -0.0281,-3.1527 -0.0092,-4.732zm-0.0021 -23.2181c-0.863,-0.3383 -1.5299,-0.7646 -1.9203,-1.2453 -1.62,0.7161 -3.1189,1.5415 -4.4895,2.4618 0.6389,0.8085 1.699,1.5279 3.0619,2.1059 1.0265,-1.1909 2.145,-2.3047 3.3479,-3.3224zm-3.9594 4.0535c-1.4552,-0.6221 -2.5877,-1.3957 -3.2721,-2.2646 -1.4658,1.0657 -2.7695,2.2453 -3.9021,3.5175 0.7822,1.1582 2.2717,2.1933 4.2617,3.0201 0.8496,-1.4961 1.8242,-2.9288 2.9125,-4.273zm-3.3095 4.9944c-2.0332,-0.8512 -3.5712,-1.9139 -4.4137,-3.1039 -1.0717,1.2982 -1.97,2.6859 -2.6861,4.142 1.0225,1.4064 2.7758,2.6623 5.0556,3.6765 0.5465,-1.6141 1.232,-3.194 2.0442,-4.7146zm-2.3342 5.6211c-2.3365,-1.013 -4.1346,-2.2686 -5.1851,-3.6751 -0.6321,1.4643 -1.0835,2.9916 -1.3445,4.5624 1.1833,1.4836 3.0801,2.8077 5.4984,3.8831 0.2056,-1.6019 0.5535,-3.1998 1.0312,-4.7704zm-1.1482 5.8511c-2.4558,-1.1083 -4.3633,-2.4752 -5.5162,-4.0055 -0.1901,1.6457 -0.1747,3.3336 0.0606,5.0428 1.2116,1.4331 3.0952,2.7121 5.4725,3.7557 -0.1561,-1.581 -0.1587,-3.1862 -0.0169,-4.793zm3.9885 -19.8374c1.4417,-0.9182 2.9849,-1.6952 4.5953,-2.3136 -0.0931,-0.1955 -0.1422,-0.3975 -0.1422,-0.6045 0,-0.2593 0.0767,-0.511 0.221,-0.7514 -1.6737,0.3059 -3.2862,0.7902 -4.8341,1.5074 -0.1123,0.2948 -0.1709,0.5978 -0.1709,0.9068 0,0.4324 0.1151,0.8526 0.3309,1.2553zm-6.5418 28.2577c-0.3763,-0.5038 -0.7308,-1.0241 -1.0622,-1.5591 0.5721,0.6283 1.3162,1.2215 2.2085,1.7694 -0.383,-0.0686 -0.7649,-0.1388 -1.1463,-0.2103z"/>
  <path class="fil1" d="M107.613 125.788l1.7546 0c1.2867,0.0039 2.4097,-0.156 3.365,-0.4913 0.9553,-0.3314 1.7351,-0.8695 2.3473,-1.6182 0.6122,-0.7447 1.0489,-1.7351 1.3062,-2.9672 0.2652,-1.2478 0.2652,-2.324 0.0039,-3.2325 -0.2612,-0.9046 -0.7798,-1.6064 -1.5597,-2.1016 -0.7798,-0.4913 -1.8131,-0.7409 -3.0998,-0.7487l-6.8548 0 -3.5326 16.6339c0,0.0039 0.1014,0.0195 0.3002,0.0546 0.1989,0.0351 0.4835,0.0663 0.8578,0.1014 0.3705,0.0351 0.8228,0.0507 1.3452,0.0546 0.5264,-0.0039 0.9826,-0.0195 1.3687,-0.0546 0.3899,-0.0351 0.6901,-0.0663 0.9046,-0.1014 0.2105,-0.0351 0.3197,-0.0507 0.3236,-0.0546l1.1698 -5.4744zm0.7954 -3.7432l0.772 -3.6731 0.9826 0c0.4874,-0.0078 0.8345,0.1326 1.0489,0.4212 0.2145,0.2846 0.2535,0.7525 0.1209,1.4037 -0.1326,0.6394 -0.3704,1.1073 -0.7058,1.4076 -0.3392,0.2963 -0.7525,0.4445 -1.236,0.4406l-0.9826 0zm13.9201 -1.7781l0.0702 -1.1463c0.0039,-0.0039 -0.0585,-0.0195 -0.1872,-0.0468 -0.1248,-0.0312 -0.3392,-0.0624 -0.6395,-0.0936 -0.3041,-0.0273 -0.7135,-0.0429 -1.2321,-0.0468 -0.503,0.0039 -0.9358,0.0195 -1.3023,0.0468 -0.3666,0.0312 -0.6512,0.0624 -0.8501,0.0936 -0.1988,0.0273 -0.3002,0.0429 -0.3041,0.0468l-2.5735 12.1654c0,0.0039 0.0936,0.0195 0.2808,0.0468 0.1832,0.0312 0.4523,0.0624 0.8032,0.0897 0.3509,0.0312 0.7798,0.0468 1.2789,0.0507 0.4796,-0.0039 0.9047,-0.0195 1.2712,-0.0507 0.3665,-0.0273 0.655,-0.0585 0.8656,-0.0897 0.2106,-0.0273 0.3158,-0.0429 0.3197,-0.0468l1.5909 -7.6034c0.2144,-0.1793 0.4445,-0.3275 0.694,-0.4445 0.2496,-0.1208 0.4913,-0.2066 0.7253,-0.2651 0.2339,-0.0585 0.4406,-0.0858 0.6161,-0.0858 0.1442,0 0.3002,0.0117 0.464,0.0312 0.1676,0.0234 0.3236,0.0585 0.4757,0.1053 0.1481,0.0507 0.2729,0.113 0.3704,0.191 0.3119,-0.2729 0.5927,-0.5732 0.8422,-0.9046 0.2535,-0.3314 0.4718,-0.6706 0.6629,-1.0216 0.1871,-0.347 0.3392,-0.6823 0.4562,-1.0099 0.117,-0.3236 0.1949,-0.616 0.2378,-0.8773 -0.3158,-0.2339 -0.6316,-0.4055 -0.9553,-0.5147 -0.3236,-0.1091 -0.6589,-0.1637 -1.0099,-0.1637 -0.2846,-0.0039 -0.6004,0.039 -0.9436,0.1286 -0.3431,0.0897 -0.6862,0.2496 -1.0371,0.4757 -0.351,0.2223 -0.6824,0.5381 -0.9904,0.9397l0 0zm3.8601 4.5621c-0.2456,1.1736 -0.3119,2.1952 -0.191,3.057 0.1209,0.8656 0.3977,1.5791 0.8383,2.1445 0.4367,0.5654 1.0099,0.9865 1.7195,1.2633 0.7058,0.2769 1.5246,0.4134 2.4526,0.4134 0.9241,0.0039 1.7742,-0.0975 2.5462,-0.3081 0.7759,-0.2066 1.4661,-0.5498 2.0783,-1.0216 0.6082,-0.4757 1.1346,-1.1073 1.5713,-1.8989 0.4367,-0.7915 0.7799,-1.7663 1.0333,-2.9244 0.2457,-1.1736 0.3119,-2.1913 0.1911,-3.0569 -0.1209,-0.8617 -0.4016,-1.5714 -0.8384,-2.1329 -0.4406,-0.5615 -1.0176,-0.9826 -1.7273,-1.2555 -0.7135,-0.273 -1.5324,-0.4094 -2.4682,-0.4094 -0.9241,-0.0039 -1.7741,0.0975 -2.5422,0.3041 -0.7721,0.2067 -1.4622,0.542 -2.0705,1.0138 -0.6083,0.4718 -1.1269,1.0996 -1.5636,1.8911 -0.4328,0.7876 -0.7759,1.7624 -1.0294,2.9205zm7.1121 0.3743c-0.1598,0.7487 -0.3197,1.3374 -0.4796,1.7624 -0.1559,0.4212 -0.3314,0.7214 -0.5224,0.8891 -0.195,0.1715 -0.4212,0.2573 -0.6824,0.2495 -0.2651,0.0078 -0.464,-0.078 -0.5888,-0.2495 -0.1287,-0.1677 -0.1871,-0.4679 -0.1715,-0.8891 0.0156,-0.425 0.1052,-1.0137 0.269,-1.7624 0.1209,-0.5654 0.2418,-1.0333 0.3626,-1.4076 0.1209,-0.3743 0.2457,-0.6668 0.3782,-0.8812 0.1326,-0.2184 0.2769,-0.3704 0.4329,-0.4601 0.1598,-0.0897 0.3353,-0.1326 0.5341,-0.1287 0.1989,-0.0039 0.3588,0.039 0.4796,0.1287 0.117,0.0897 0.1989,0.2417 0.2379,0.4601 0.039,0.2144 0.039,0.5069 -0.0039,0.8812 -0.039,0.3743 -0.1248,0.8422 -0.2457,1.4076z"/>
  <path class="fil1" d="M100.51 136.262l-3.4491 16.2313 11.1139 0c0.124,-0.2179 0.2367,-0.4809 0.3382,-0.7928 0.1014,-0.3081 0.1916,-0.6462 0.2705,-1.0107 0.0789,-0.3532 0.1315,-0.6838 0.154,-0.9881 0.0263,-0.3081 0.0263,-0.5636 0.0038,-0.7703l-6.1995 0 0.6087 -2.9081 4.8468 0c0.0752,-0.1428 0.1466,-0.2931 0.2142,-0.4546 0.0676,-0.1653 0.1315,-0.3532 0.1954,-0.5636 0.0676,-0.2104 0.1315,-0.4584 0.1991,-0.7402 0.0752,-0.4095 0.1203,-0.7514 0.1353,-1.0182 0.015,-0.2668 0.015,-0.4997 0,-0.6951l-4.8469 0 0.5636 -2.7277 5.974 0c0.1165,-0.1992 0.2292,-0.4584 0.342,-0.7816 0.1127,-0.3231 0.2066,-0.68 0.2893,-1.067 0.0789,-0.3645 0.124,-0.6989 0.1427,-0.9994 0.0188,-0.3006 0.0151,-0.5411 -0.0075,-0.7139l-10.8885 0zm12.8498 9.8515l-4.8919 6.1995c0.0037,0.0037 0.1014,0.0187 0.2968,0.045 0.1954,0.0301 0.4659,0.0602 0.8116,0.0865 0.3494,0.03 0.7514,0.045 1.2135,0.0488 0.3232,0 0.635,-0.0113 0.9281,-0.0301 0.2968,-0.015 0.5598,-0.0375 0.7928,-0.0601 0.2329,-0.0225 0.417,-0.0451 0.5523,-0.0638 0.1352,-0.0151 0.2029,-0.0263 0.2066,-0.0263l2.322 -2.9758 1.2399 2.9758c0,0.0037 0.0864,0.0187 0.2593,0.045 0.1728,0.0301 0.4283,0.0602 0.7664,0.0865 0.3382,0.03 0.7552,0.045 1.2512,0.0488 0.4809,-0.0038 0.9168,-0.0188 1.3075,-0.0488 0.3945,-0.0263 0.7101,-0.0564 0.9468,-0.0865 0.233,-0.0263 0.3532,-0.0413 0.3607,-0.045l-2.4347 -5.9064 4.5989 -5.8163c-0.0037,-0.0037 -0.1127,-0.0188 -0.3193,-0.0451 -0.2105,-0.03 -0.4998,-0.0601 -0.8642,-0.0901 -0.3645,-0.0263 -0.7815,-0.0414 -1.2512,-0.0451 -0.4621,0.0037 -0.8754,0.0188 -1.2361,0.0451 -0.3607,0.03 -0.6463,0.0601 -0.8567,0.0901 -0.2066,0.0263 -0.3156,0.0414 -0.3193,0.0451l-1.8711 2.3896 -0.8567 -2.3896c0,-0.0037 -0.0864,-0.0188 -0.2592,-0.0451 -0.1729,-0.03 -0.4284,-0.0601 -0.7665,-0.0901 -0.3382,-0.0263 -0.7552,-0.0414 -1.2512,-0.0451 -0.4809,0.0037 -0.9168,0.0188 -1.3075,0.0451 -0.3945,0.03 -0.7101,0.0601 -0.9468,0.0901 -0.233,0.0263 -0.3532,0.0414 -0.3607,0.0451l1.9387 5.5232zm15.7579 -4.5989l0 -0.9243c0,-0.0037 -0.0789,-0.0188 -0.233,-0.0451 -0.154,-0.03 -0.387,-0.0601 -0.6988,-0.0901 -0.3119,-0.0263 -0.6989,-0.0414 -1.1648,-0.0451 -0.4696,0.0037 -0.8792,0.0188 -1.2361,0.0451 -0.3532,0.03 -0.6275,0.0601 -0.8266,0.0901 -0.1991,0.0263 -0.3006,0.0414 -0.3043,0.0451l-3.5619 16.7724c0.0038,0.0038 0.0939,0.0188 0.278,0.0451 0.1841,0.03 0.4471,0.0601 0.7891,0.0902 0.3381,0.0263 0.7401,0.0413 1.2098,0.045 0.4696,-0.0037 0.8792,-0.0187 1.2361,-0.045 0.3532,-0.0301 0.6275,-0.0602 0.8266,-0.0902 0.1992,-0.0263 0.3006,-0.0413 0.3044,-0.0451l1.2173 -5.7711c0.2367,0.3531 0.5523,0.6274 0.9543,0.8266 0.4021,0.1953 0.8943,0.2968 1.4804,0.3005 0.4922,0.0038 0.9656,-0.0451 1.4202,-0.1503 0.4547,-0.1014 0.883,-0.278 1.2888,-0.5297 0.402,-0.248 0.7777,-0.5937 1.1196,-1.0295 0.3419,-0.4359 0.65,-0.9844 0.9206,-1.6494 0.2705,-0.6651 0.4997,-1.4616 0.6838,-2.3897 0.2555,-1.3112 0.3644,-2.4084 0.3306,-3.2876 -0.0338,-0.8754 -0.1841,-1.5705 -0.4508,-2.0852 -0.2706,-0.511 -0.6275,-0.8755 -1.0746,-1.0934 -0.4471,-0.2179 -0.9581,-0.3269 -1.533,-0.3194 -0.3982,0.0038 -0.7777,0.0714 -1.1384,0.1992 -0.357,0.1277 -0.6914,0.293 -0.9995,0.4959 -0.3118,0.1992 -0.5898,0.4133 -0.8378,0.635l0 0zm0.8566 4.9145c-0.1352,0.6275 -0.263,1.1272 -0.3907,1.5067 -0.124,0.3757 -0.248,0.6612 -0.3757,0.8491 -0.1278,0.1879 -0.2555,0.3156 -0.3946,0.3757 -0.1352,0.0639 -0.2818,0.0902 -0.4396,0.0864 -0.1728,-0.0037 -0.308,-0.0488 -0.4057,-0.1427 -0.0977,-0.094 -0.1616,-0.2142 -0.1992,-0.3645 -0.0375,-0.1503 -0.0526,-0.3081 -0.0451,-0.4809 0.0076,-0.1729 0.0301,-0.3382 0.0639,-0.4997l0.6087 -2.9532c0.1202,-0.3945 0.2818,-0.6839 0.4922,-0.8717 0.2066,-0.1879 0.4283,-0.2818 0.6575,-0.2781 0.1916,-0.0037 0.3457,0.0376 0.4584,0.1203 0.1127,0.0826 0.1841,0.2254 0.2217,0.4283 0.0338,0.2029 0.03,0.4884 -0.0113,0.8491 -0.0413,0.3607 -0.1202,0.8191 -0.2405,1.3752l0 0zm11.7452 -4.7341l0.0677 -1.1047c0.0037,-0.0037 -0.0564,-0.0188 -0.1804,-0.0451 -0.1202,-0.03 -0.3269,-0.0601 -0.6162,-0.0901 -0.293,-0.0263 -0.6876,-0.0414 -1.1873,-0.0451 -0.4847,0.0037 -0.9017,0.0188 -1.2549,0.0451 -0.3532,0.03 -0.6274,0.0601 -0.8191,0.0901 -0.1916,0.0263 -0.2893,0.0414 -0.293,0.0451l-2.4798 11.7227c0,0.0037 0.0902,0.0187 0.2705,0.045 0.1766,0.0301 0.4358,0.0602 0.774,0.0865 0.3382,0.03 0.7514,0.045 1.2324,0.0488 0.4621,-0.0038 0.8717,-0.0188 1.2248,-0.0488 0.3532,-0.0263 0.6313,-0.0564 0.8341,-0.0865 0.2029,-0.0263 0.3044,-0.0413 0.3081,-0.045l1.533 -7.3267c0.2066,-0.1728 0.4283,-0.3156 0.6688,-0.4283 0.2405,-0.1165 0.4734,-0.1991 0.6988,-0.2555 0.2255,-0.0564 0.4246,-0.0827 0.5937,-0.0827 0.139,0 0.2893,0.0113 0.4471,0.0301 0.1616,0.0225 0.3119,0.0564 0.4584,0.1014 0.1428,0.0489 0.263,0.109 0.3569,0.1841 0.3006,-0.263 0.5711,-0.5523 0.8116,-0.8716 0.2442,-0.3194 0.4546,-0.6463 0.6387,-0.9844 0.1804,-0.3344 0.3269,-0.6576 0.4396,-0.9732 0.1127,-0.3118 0.1879,-0.5936 0.2292,-0.8453 -0.3043,-0.2255 -0.6087,-0.3908 -0.9205,-0.496 -0.3119,-0.1052 -0.635,-0.1578 -0.9731,-0.1578 -0.2743,-0.0038 -0.5787,0.0376 -0.9093,0.124 -0.3306,0.0864 -0.6613,0.2404 -0.9994,0.4584 -0.3382,0.2141 -0.6575,0.5185 -0.9544,0.9055l0 0zm13.9319 6.0416c0.0037,-0.0037 0.0488,-0.1165 0.1352,-0.3381 0.0864,-0.2217 0.1917,-0.5336 0.3156,-0.9318 0.124,-0.3983 0.2443,-0.8604 0.3607,-1.3902 0.1654,-0.7665 0.1841,-1.4541 0.0526,-2.059 -0.1315,-0.6011 -0.3907,-1.1159 -0.7777,-1.5367 -0.3833,-0.4208 -0.8755,-0.7439 -1.4729,-0.9619 -0.5936,-0.2216 -1.2774,-0.3344 -2.0401,-0.3344 -1.161,-0.0075 -2.1905,0.1879 -3.096,0.5824 -0.9055,0.3945 -1.6645,1.022 -2.2844,1.8862 -0.62,0.8604 -1.0784,1.9913 -1.3827,3.3928 -0.2968,1.424 -0.3156,2.63 -0.0488,3.6219 0.263,0.992 0.7852,1.7472 1.5705,2.2694 0.7853,0.5185 1.811,0.7778 3.0772,0.7815 0.8115,-0.0075 1.5029,-0.0676 2.0815,-0.1878 0.5786,-0.1165 1.0483,-0.2555 1.4127,-0.4096 0.3645,-0.154 0.6312,-0.293 0.8041,-0.4095 0.1728,-0.1202 0.2555,-0.1804 0.2555,-0.1879 0.0225,-0.2555 0.0075,-0.526 -0.0451,-0.8078 -0.0489,-0.2818 -0.124,-0.5598 -0.2217,-0.8341 -0.1014,-0.2743 -0.2142,-0.5298 -0.3381,-0.7627 -0.1278,-0.2367 -0.2555,-0.4321 -0.387,-0.5937 -0.0038,0.0038 -0.0602,0.0301 -0.1691,0.0827 -0.1127,0.0564 -0.2668,0.1165 -0.4622,0.1879 -0.1953,0.0714 -0.4245,0.1315 -0.68,0.1878 -0.2593,0.0526 -0.5336,0.0789 -0.8304,0.0827 -0.3456,0.0037 -0.635,-0.0263 -0.8679,-0.0939 -0.2292,-0.0677 -0.3983,-0.1992 -0.5035,-0.3908 -0.1089,-0.1916 -0.1465,-0.4734 -0.1164,-0.8454l5.6584 0zm-3.2914 -3.1335c-0.0225,0.1127 -0.0451,0.2254 -0.0714,0.3344 -0.0225,0.1127 -0.0526,0.2179 -0.0864,0.3193l-1.8035 0c0.1428,-0.4997 0.2969,-0.8942 0.4547,-1.1797 0.1615,-0.2856 0.3268,-0.4885 0.4959,-0.6087 0.1691,-0.1202 0.3419,-0.1766 0.5148,-0.1728 0.2404,0.0037 0.402,0.1239 0.4922,0.3569 0.0901,0.2329 0.0901,0.5523 0.0037,0.9506zm5.2075 -0.744c-0.1127,0.5561 -0.139,1.0483 -0.0751,1.4766 0.0639,0.4284 0.1954,0.8003 0.3907,1.1122 0.1954,0.3156 0.4321,0.5748 0.7102,0.789 0.2818,0.2104 0.5748,0.3757 0.8904,0.4997 0.3006,0.1127 0.5937,0.2104 0.8755,0.2968 0.2818,0.0865 0.5335,0.1691 0.7552,0.2518 0.2179,0.0789 0.387,0.1653 0.5072,0.2555 0.1165,0.0939 0.1653,0.1991 0.139,0.3231 -0.0188,0.1052 -0.0789,0.1954 -0.1841,0.2705 -0.1014,0.0714 -0.263,0.1278 -0.4809,0.1653 -0.2217,0.0414 -0.5185,0.0602 -0.8905,0.0602 -0.3982,-0.0038 -0.7702,-0.0263 -1.1159,-0.0752 -0.3494,-0.0451 -0.6537,-0.1014 -0.9167,-0.1616 -0.2668,-0.0601 -0.4735,-0.1164 -0.6237,-0.1615 -0.1503,-0.0489 -0.2255,-0.0714 -0.2292,-0.0752 -0.3945,0.3683 -0.7177,0.7778 -0.9732,1.2362 -0.2555,0.4546 -0.4471,0.9881 -0.5823,1.6043 0,0.0038 0.0939,0.0564 0.2818,0.1541 0.1878,0.0977 0.4659,0.2141 0.8378,0.3419 0.3682,0.1277 0.8304,0.2442 1.3827,0.3419 0.5485,0.0977 1.1873,0.1503 1.9162,0.154 1.2061,0 2.213,-0.1465 3.0171,-0.432 0.8078,-0.2856 1.439,-0.7139 1.9011,-1.2775 0.4584,-0.5674 0.774,-1.2662 0.9431,-2.1003 0.1127,-0.5523 0.139,-1.037 0.0789,-1.4578 -0.0639,-0.4208 -0.1916,-0.7853 -0.387,-1.0896 -0.1916,-0.3044 -0.4283,-0.5636 -0.7101,-0.7703 -0.2781,-0.2066 -0.5786,-0.3682 -0.898,-0.4922 -0.3081,-0.1164 -0.6087,-0.2216 -0.898,-0.3081 -0.293,-0.0901 -0.5561,-0.1766 -0.7852,-0.2555 -0.233,-0.0789 -0.4133,-0.1653 -0.5411,-0.2554 -0.1277,-0.0902 -0.1841,-0.1917 -0.1653,-0.3081 0.0188,-0.0977 0.0714,-0.1841 0.1578,-0.2593 0.0864,-0.0751 0.2217,-0.1315 0.4058,-0.1728 0.1841,-0.0414 0.4321,-0.0639 0.7439,-0.0639 0.387,0 0.7477,0.0188 1.0859,0.0564 0.3381,0.0338 0.6387,0.0751 0.8979,0.1239 0.2593,0.0451 0.4622,0.0865 0.6087,0.124 0.1465,0.0339 0.2217,0.0526 0.2254,0.0564 0.3006,-0.2517 0.5524,-0.5335 0.7628,-0.8491 0.2066,-0.3157 0.3719,-0.65 0.4959,-0.9995 0.124,-0.3494 0.2067,-0.7026 0.2518,-1.0595 0,-0.0038 -0.0902,-0.0413 -0.2706,-0.1165 -0.1803,-0.0751 -0.4433,-0.1578 -0.7927,-0.2555 -0.3532,-0.0977 -0.7815,-0.1841 -1.2963,-0.2555 -0.511,-0.0751 -1.1009,-0.1127 -1.7659,-0.1165 -1.1159,-0.0037 -2.0665,0.1278 -2.8442,0.387 -0.7815,0.2593 -1.4052,0.6613 -1.8711,1.2024 -0.4659,0.541 -0.7891,1.2361 -0.9657,2.0852zm10.4376 0c-0.1127,0.5561 -0.139,1.0483 -0.0751,1.4766 0.0639,0.4284 0.1954,0.8003 0.3907,1.1122 0.1954,0.3156 0.4321,0.5748 0.7102,0.789 0.2818,0.2104 0.5748,0.3757 0.8904,0.4997 0.3006,0.1127 0.5937,0.2104 0.8755,0.2968 0.2818,0.0865 0.5335,0.1691 0.7552,0.2518 0.2179,0.0789 0.387,0.1653 0.5072,0.2555 0.1165,0.0939 0.1653,0.1991 0.139,0.3231 -0.0188,0.1052 -0.0789,0.1954 -0.1841,0.2705 -0.1014,0.0714 -0.263,0.1278 -0.4809,0.1653 -0.2217,0.0414 -0.5185,0.0602 -0.8905,0.0602 -0.3982,-0.0038 -0.7702,-0.0263 -1.1159,-0.0752 -0.3494,-0.0451 -0.6537,-0.1014 -0.9167,-0.1616 -0.2668,-0.0601 -0.4735,-0.1164 -0.6237,-0.1615 -0.1503,-0.0489 -0.2255,-0.0714 -0.2292,-0.0752 -0.3945,0.3683 -0.7177,0.7778 -0.9732,1.2362 -0.2555,0.4546 -0.4471,0.9881 -0.5823,1.6043 0,0.0038 0.0939,0.0564 0.2818,0.1541 0.1878,0.0977 0.4659,0.2141 0.8378,0.3419 0.3682,0.1277 0.8304,0.2442 1.3827,0.3419 0.5485,0.0977 1.1873,0.1503 1.9162,0.154 1.2061,0 2.213,-0.1465 3.0171,-0.432 0.8078,-0.2856 1.439,-0.7139 1.9011,-1.2775 0.4584,-0.5674 0.774,-1.2662 0.9431,-2.1003 0.1127,-0.5523 0.139,-1.037 0.0789,-1.4578 -0.0639,-0.4208 -0.1916,-0.7853 -0.387,-1.0896 -0.1916,-0.3044 -0.4283,-0.5636 -0.7101,-0.7703 -0.2781,-0.2066 -0.5786,-0.3682 -0.898,-0.4922 -0.3081,-0.1164 -0.6087,-0.2216 -0.898,-0.3081 -0.293,-0.0901 -0.5561,-0.1766 -0.7852,-0.2555 -0.233,-0.0789 -0.4133,-0.1653 -0.5411,-0.2554 -0.1277,-0.0902 -0.1841,-0.1917 -0.1653,-0.3081 0.0188,-0.0977 0.0714,-0.1841 0.1578,-0.2593 0.0864,-0.0751 0.2217,-0.1315 0.4058,-0.1728 0.1841,-0.0414 0.4321,-0.0639 0.7439,-0.0639 0.387,0 0.7477,0.0188 1.0859,0.0564 0.3381,0.0338 0.6387,0.0751 0.8979,0.1239 0.2593,0.0451 0.4622,0.0865 0.6087,0.124 0.1465,0.0339 0.2217,0.0526 0.2254,0.0564 0.3006,-0.2517 0.5524,-0.5335 0.7628,-0.8491 0.2066,-0.3157 0.3719,-0.65 0.4959,-0.9995 0.124,-0.3494 0.2067,-0.7026 0.2518,-1.0595 0,-0.0038 -0.0902,-0.0413 -0.2706,-0.1165 -0.1803,-0.0751 -0.4433,-0.1578 -0.7927,-0.2555 -0.3532,-0.0977 -0.7815,-0.1841 -1.2963,-0.2555 -0.511,-0.0751 -1.1009,-0.1127 -1.7659,-0.1165 -1.1159,-0.0037 -2.0665,0.1278 -2.8442,0.387 -0.7815,0.2593 -1.4052,0.6613 -1.8711,1.2024 -0.4659,0.541 -0.7891,1.2361 -0.9657,2.0852z"/>
  <path class="fil0" d="M49.6692 148.761c-7.6276,-3.0752 -2.9897,-5.7817 6.0818,-8.3545 -8.5015,2.5455 -11.66,4.985 -6.6491,7.2625 10.7248,3.7412 22.8719,5.9963 37.3627,5.8033 28.2978,0.7289 30.3873,4.1702 35.2772,7.3217 -4.311,-2.2245 -8.5306,-4.4691 -20.4173,-5.0408 -17.9003,-0.8216 -36.1729,-0.8189 -51.6553,-6.9922z"/>
  <path class="fil2" d="M54.8062 161.42c20.5353,2.8724 51.1608,2.4098 83.7124,1.3107 -50.8349,-0.5804 -123.013,-6.9535 -91.9757,-20.1234 -8.2658,2.2686 -13.7139,4.7696 -14.8077,7.6296 -2.5337,6.6265 15.7969,10.1657 23.071,11.1831z"/>
  <path class="fil1" d="M63.3767 175.341l0.8848 0c0.6488,0.0013 1.215,-0.0521 1.6968,-0.1641 0.4816,-0.1107 0.8748,-0.2905 1.1834,-0.5406 0.3087,-0.2488 0.5289,-0.5797 0.6587,-0.9913 0.1337,-0.4168 0.1337,-0.7763 0.002,-1.0798 -0.1318,-0.3022 -0.3932,-0.5367 -0.7864,-0.7021 -0.3933,-0.1642 -0.9142,-0.2475 -1.5631,-0.2501l-3.4563 0 -1.7812 5.5569c0,0.0013 0.051,0.0065 0.1514,0.0182 0.1002,0.0117 0.2437,0.0221 0.4324,0.0339 0.1869,0.0117 0.4149,0.0169 0.6783,0.0182 0.2655,-0.0013 0.4955,-0.0065 0.6901,-0.0182 0.1966,-0.0118 0.348,-0.0222 0.4562,-0.0339 0.1062,-0.0117 0.1612,-0.0169 0.1632,-0.0182l0.5897 -1.8289zm0.4012 -1.2505l0.3892 -1.227 0.4954 0c0.2459,-0.0026 0.4208,0.0443 0.5289,0.1406 0.1082,0.0951 0.1278,0.2514 0.0609,0.469 -0.0668,0.2136 -0.1867,0.3699 -0.3557,0.4702 -0.1712,0.099 -0.3795,0.1485 -0.6234,0.1472l-0.4953 0zm9.3073 1.5006c0.0019,-0.0013 0.0255,-0.0404 0.0707,-0.1172 0.0452,-0.0769 0.1003,-0.185 0.1652,-0.3231 0.0649,-0.138 0.1278,-0.2983 0.1886,-0.4819 0.0865,-0.2658 0.0965,-0.5041 0.0277,-0.7139 -0.0689,-0.2084 -0.2046,-0.3868 -0.4071,-0.5327 -0.2004,-0.1459 -0.4581,-0.2579 -0.7707,-0.3335 -0.3106,-0.0768 -0.6685,-0.1159 -1.0675,-0.1159 -0.6075,-0.0026 -1.1462,0.0651 -1.62,0.2019 -0.4739,0.1368 -0.871,0.3543 -1.1954,0.6539 -0.3245,0.2983 -0.5643,0.6904 -0.7235,1.1762 -0.1554,0.4937 -0.1652,0.9119 -0.0256,1.2557 0.1377,0.3439 0.4109,0.6058 0.8219,0.7868 0.4108,0.1798 0.9475,0.2697 1.6101,0.271 0.4248,-0.0026 0.7864,-0.0235 1.0892,-0.0652 0.3027,-0.0404 0.5486,-0.0886 0.7392,-0.142 0.1908,-0.0534 0.3304,-0.1016 0.4208,-0.1419 0.0904,-0.0417 0.1338,-0.0626 0.1338,-0.0652 0.0117,-0.0885 0.0039,-0.1823 -0.0237,-0.28 -0.0255,-0.0977 -0.0649,-0.1941 -0.116,-0.2892 -0.0531,-0.0951 -0.1121,-0.1837 -0.177,-0.2644 -0.0669,-0.0821 -0.1336,-0.1498 -0.2024,-0.2058 -0.002,0.0013 -0.0315,0.0104 -0.0886,0.0286 -0.0589,0.0196 -0.1395,0.0404 -0.2418,0.0651 -0.1022,0.0248 -0.2222,0.0456 -0.3557,0.0652 -0.1357,0.0182 -0.2793,0.0273 -0.4346,0.0286 -0.1809,0.0013 -0.3323,-0.0091 -0.4541,-0.0325 -0.12,-0.0235 -0.2085,-0.0691 -0.2636,-0.1355 -0.0569,-0.0664 -0.0766,-0.1641 -0.0608,-0.2931l2.9609 0zm-1.7223 -1.0864c-0.0118,0.0391 -0.0236,0.0782 -0.0375,0.116 -0.0117,0.039 -0.0274,0.0755 -0.0451,0.1107l-0.9438 0c0.0747,-0.1733 0.1553,-0.31 0.2379,-0.409 0.0847,-0.099 0.1711,-0.1694 0.2596,-0.211 0.0884,-0.0417 0.1789,-0.0613 0.2693,-0.06 0.1258,0.0013 0.2104,0.043 0.2576,0.1238 0.0472,0.0807 0.0472,0.1915 0.002,0.3295zm5.4028 -0.0078l-0.1889 0 0.4483 -1.399c-0.0039,-0.0026 -0.1081,-0.0104 -0.3165,-0.0234 -0.2084,-0.0143 -0.4994,-0.0222 -0.8749,-0.0235 -0.3972,0.0013 -0.7019,0.0092 -0.9162,0.0235 -0.2124,0.013 -0.3204,0.0208 -0.3224,0.0234l-1.3093 4.072c0,0.0013 0.0451,0.0065 0.1335,0.0182 0.0886,0.0117 0.2222,0.0221 0.4012,0.0339 0.1789,0.0117 0.401,0.0169 0.6685,0.0182 0.2751,-0.0013 0.5032,-0.0065 0.6842,-0.0182 0.1827,-0.0118 0.3184,-0.0222 0.4088,-0.0339 0.0885,-0.0117 0.1338,-0.0169 0.1338,-0.0182l0.4953 -1.5553 0.2242 0 0.4837 1.5553c0,-0.0013 0.0432,0.0039 0.1297,0.0143 0.0866,0.0117 0.2143,0.0234 0.3853,0.0365 0.1712,0.0117 0.3855,0.0182 0.641,0.0195 0.291,-0.0013 0.5367,-0.0078 0.7373,-0.0208 0.1985,-0.0118 0.3499,-0.0248 0.4522,-0.0365 0.1042,-0.013 0.1553,-0.0196 0.1553,-0.0209l-0.7904 -2.1141 1.8756 -1.9343c0,-0.0013 -0.0511,-0.0065 -0.1533,-0.017 -0.1002,-0.0091 -0.2477,-0.0195 -0.4404,-0.0299 -0.1926,-0.0091 -0.4285,-0.0144 -0.7038,-0.0157 -0.2753,0.0013 -0.4995,0.0066 -0.6764,0.0157 -0.1749,0.0104 -0.3047,0.0208 -0.3892,0.0299 -0.0846,0.0105 -0.1259,0.0157 -0.1259,0.017l-1.2503 1.3833zm6.7592 0.4768l0.3067 -0.7894 0.4836 0 -0.979 2.9934c0,0.0013 0.0432,0.0065 0.1316,0.0156 0.0865,0.0104 0.2203,0.0208 0.3973,0.03 0.1789,0.0104 0.403,0.0156 0.6742,0.0169 0.2498,-0.0013 0.4641,-0.0065 0.645,-0.0169 0.1808,-0.0092 0.3223,-0.0196 0.4208,-0.03 0.0982,-0.0091 0.1473,-0.0143 0.1494,-0.0156l1.3211 -4.1267 -4.8718 0 -0.8258 1.8914c-0.0984,0.2241 -0.1947,0.4116 -0.291,0.5627 -0.0963,0.1524 -0.1927,0.2736 -0.287,0.3661 -0.0944,0.0925 -0.1868,0.1615 -0.2773,0.2071 -0.0924,0.0443 -0.1789,0.0729 -0.2654,0.0833 -0.0806,0.0105 -0.1513,0.0157 -0.2182,0.0157 -0.0649,0.0013 -0.118,0 -0.1573,-0.0026 -0.0394,-0.0026 -0.059,-0.0052 -0.061,-0.0052 -0.0019,0.0013 -0.0274,0.0273 -0.0747,0.0781 -0.0452,0.0495 -0.0963,0.116 -0.1533,0.198 -0.0571,0.0834 -0.1042,0.1733 -0.1377,0.271 -0.0294,0.1042 -0.049,0.1888 -0.0551,0.2566 -0.0058,0.0664 -0.0058,0.1159 0,0.1485 0.0041,0.0325 0.0061,0.0482 0.008,0.0482 0.002,0.0013 0.0413,0.0117 0.1179,0.0299 0.0767,0.0196 0.181,0.0378 0.3146,0.0573 0.1357,0.0183 0.289,0.0287 0.4639,0.03 0.2812,0.0013 0.5467,-0.0156 0.8003,-0.0521 0.2536,-0.0352 0.4935,-0.1003 0.7196,-0.1954 0.2261,-0.0938 0.4383,-0.228 0.6409,-0.4012 0.2006,-0.1732 0.3893,-0.396 0.5642,-0.6682 0.177,-0.2723 0.3421,-0.6044 0.4955,-0.9965l0 0zm7.8446 -1.868l-0.118 0.2814c-0.0806,-0.099 -0.1907,-0.1784 -0.3264,-0.2397 -0.1376,-0.0612 -0.289,-0.1055 -0.4522,-0.1328 -0.1631,-0.0287 -0.3243,-0.0417 -0.4835,-0.0417 -0.3599,-0.0013 -0.6881,0.0299 -0.987,0.0964 -0.2988,0.0664 -0.5683,0.1784 -0.8081,0.3334 -0.2398,0.155 -0.4502,0.3661 -0.631,0.6318 -0.183,0.2657 -0.3383,0.5966 -0.4642,0.9939 -0.1257,0.3986 -0.1788,0.7412 -0.1612,1.0303 0.0159,0.2892 0.0965,0.5263 0.236,0.7126 0.1415,0.1862 0.3343,0.3243 0.58,0.4129 0.2457,0.0899 0.5347,0.1342 0.8671,0.1342 0.3244,-0.0026 0.6134,-0.043 0.8709,-0.1225 0.2576,-0.0794 0.4857,-0.1837 0.6861,-0.3152l-0.0118 0.297c0,0.0013 0.0375,0.0065 0.1122,0.0156 0.0747,0.0104 0.1906,0.0208 0.3459,0.03 0.1553,0.0104 0.352,0.0156 0.5918,0.0169 0.2379,-0.0013 0.4444,-0.0065 0.6213,-0.0169 0.1749,-0.0092 0.3126,-0.0196 0.409,-0.03 0.0983,-0.0091 0.1475,-0.0143 0.1494,-0.0156l1.3094 -4.0798c-0.002,-0.0013 -0.0492,-0.0065 -0.1436,-0.0156 -0.0943,-0.0104 -0.23,-0.0208 -0.4049,-0.0313 -0.1771,-0.0091 -0.3853,-0.0143 -0.6312,-0.0156 -0.2438,0.0013 -0.4522,0.0065 -0.6252,0.0182 -0.171,0.0118 -0.3028,0.0222 -0.3932,0.0339 -0.0904,0.0117 -0.1376,0.0169 -0.1376,0.0182l0 0zm-0.5308 1.4303l-0.413 1.2661c-0.0314,0.056 -0.0706,0.1068 -0.1198,0.1537 -0.0492,0.0469 -0.1102,0.086 -0.1809,0.1147 -0.0707,0.0286 -0.1554,0.043 -0.2537,0.0443 -0.1474,0.0013 -0.2535,-0.0261 -0.3126,-0.0834 -0.0609,-0.0573 -0.0845,-0.1537 -0.0707,-0.2892 0.0157,-0.1368 0.059,-0.3217 0.1356,-0.5575 0.061,-0.1967 0.1199,-0.3595 0.1769,-0.4911 0.0551,-0.1302 0.1161,-0.2331 0.179,-0.3087 0.0628,-0.0769 0.1356,-0.1303 0.2162,-0.1615 0.0827,-0.0326 0.177,-0.0482 0.289,-0.0469 0.0984,0 0.1731,0.0169 0.2261,0.0495 0.0531,0.0325 0.0885,0.0755 0.1063,0.1302 0.0196,0.0535 0.0255,0.1134 0.0216,0.1798l0 0zm8.2456 -1.4224l-0.9909 1.0863c-0.1986,0.2071 -0.3481,0.383 -0.4502,0.525 -0.1022,0.142 -0.171,0.2488 -0.2104,0.3191l-0.0354 0c0.002,-0.0755 -0.0019,-0.185 -0.0156,-0.3282 -0.0139,-0.1433 -0.0512,-0.3153 -0.1142,-0.5159l-0.342 -1.0863c-0.0019,-0.0013 -0.0511,-0.0065 -0.1474,-0.0157 -0.0965,-0.0104 -0.232,-0.0208 -0.4051,-0.0312 -0.173,-0.0091 -0.3736,-0.0144 -0.6036,-0.0157 -0.2497,0.0013 -0.4679,0.0066 -0.6546,0.0157 -0.1869,0.0104 -0.3324,0.0208 -0.4365,0.0312 -0.1042,0.0092 -0.1573,0.0144 -0.1592,0.0157l-1.2976 4.0641c0,0.0013 0.0412,0.0065 0.1238,0.0156 0.0805,0.0104 0.2005,0.0208 0.3578,0.03 0.1592,0.0104 0.352,0.0156 0.58,0.0169 0.2163,-0.0013 0.403,-0.0065 0.5583,-0.0169 0.1534,-0.0092 0.2714,-0.0196 0.354,-0.03 0.0825,-0.0091 0.1257,-0.0143 0.1257,-0.0156l0.2361 -0.7503c0.053,-0.1694 0.0923,-0.3374 0.1179,-0.5054 0.0274,-0.1694 0.0433,-0.3283 0.0492,-0.4807 0.0058,-0.1511 0.0078,-0.2866 0.0019,-0.4051 -0.0039,-0.1172 -0.0098,-0.211 -0.0157,-0.2788 -0.008,-0.0677 -0.0119,-0.1029 -0.0119,-0.1042l0.1063 0c0,0.0013 0.0039,0.0365 0.0098,0.1055 0.0059,0.0691 0.0157,0.1603 0.0294,0.2749 0.0137,0.1159 0.0335,0.2436 0.0551,0.3843 0.0235,0.1406 0.0512,0.2852 0.0825,0.4311l0.1889 0.7425c0,0 0.0274,0.0052 0.0845,0.0143 0.0549,0.0092 0.1357,0.017 0.2398,0.0261 0.1061,0.0091 0.234,0.013 0.3834,0.0143 0.1455,-0.0013 0.2714,-0.0052 0.3775,-0.0143 0.1061,-0.0091 0.1867,-0.0169 0.2437,-0.0261 0.0571,-0.0091 0.0865,-0.0143 0.0865,-0.0143l0.7314 -0.8363c0.1809,-0.2084 0.3342,-0.3947 0.462,-0.5601 0.1259,-0.1654 0.2222,-0.297 0.2871,-0.3934 0.0669,-0.0964 0.1002,-0.1459 0.1002,-0.1485l0.1063 0c-0.002,0.0013 -0.0257,0.0352 -0.0728,0.1016 -0.0492,0.0665 -0.1101,0.1564 -0.1868,0.2736 -0.0747,0.1159 -0.1573,0.2488 -0.2457,0.3999 -0.0865,0.1511 -0.171,0.3113 -0.2536,0.4819 -0.0806,0.1694 -0.1494,0.3426 -0.2084,0.5172l-0.2359 0.7503c0,0.0013 0.0412,0.0065 0.1237,0.0156 0.0826,0.0104 0.2026,0.0208 0.3618,0.03 0.1592,0.0104 0.3559,0.0156 0.5879,0.0169 0.2398,-0.0013 0.4483,-0.0065 0.6193,-0.0169 0.1729,-0.0092 0.3047,-0.0196 0.3971,-0.03 0.0925,-0.0091 0.1396,-0.0143 0.1396,-0.0156l1.2976 -4.0641c-0.002,-0.0013 -0.055,-0.0065 -0.1612,-0.0157 -0.1042,-0.0104 -0.2497,-0.0208 -0.4325,-0.0312 -0.1849,-0.0091 -0.3953,-0.0144 -0.6331,-0.0157 -0.2536,0.0013 -0.4758,0.0066 -0.6685,0.0157 -0.1926,0.0104 -0.344,0.0208 -0.4522,0.0312 -0.1081,0.0092 -0.1632,0.0144 -0.1651,0.0157zm4.931 2.6026l0.8965 0 -0.46 1.4615c0,0.0013 0.0392,0.0065 0.1218,0.0156 0.0825,0.0104 0.2123,0.0208 0.3892,0.03 0.1751,0.0104 0.4012,0.0156 0.6803,0.0169 0.287,-0.0013 0.521,-0.0065 0.7039,-0.0169 0.1828,-0.0092 0.3185,-0.0196 0.405,-0.03 0.0865,-0.0091 0.1298,-0.0143 0.1298,-0.0156l1.2975 -4.0641c-0.0019,-0.0013 -0.0531,-0.0065 -0.1533,-0.0157 -0.1022,-0.0104 -0.2418,-0.0208 -0.4208,-0.0312 -0.1769,-0.0091 -0.3834,-0.0144 -0.6173,-0.0157 -0.2457,0.0013 -0.4601,0.0066 -0.6468,0.0157 -0.1849,0.0104 -0.3284,0.0208 -0.4325,0.0312 -0.1042,0.0092 -0.1573,0.0144 -0.1593,0.0157l-0.4482 1.4224 -0.8966 0 0.4483 -1.4224c-0.002,-0.0013 -0.0512,-0.0065 -0.1494,-0.0157 -0.0983,-0.0104 -0.2359,-0.0208 -0.413,-0.0312 -0.1788,-0.0091 -0.3873,-0.0144 -0.6291,-0.0157 -0.2594,0.0013 -0.4836,0.0066 -0.6665,0.0157 -0.1847,0.0104 -0.3263,0.0208 -0.4246,0.0312 -0.0964,0.0092 -0.1474,0.0144 -0.1474,0.0157l-1.2976 4.0641c0,0.0013 0.0392,0.0065 0.1218,0.0156 0.0826,0.0104 0.2124,0.0208 0.3893,0.03 0.175,0.0104 0.4011,0.0156 0.6802,0.0169 0.2675,-0.0013 0.4936,-0.0065 0.6783,-0.0169 0.1829,-0.0092 0.3225,-0.0196 0.4169,-0.03 0.0963,-0.0091 0.1435,-0.0143 0.1435,-0.0156l0.4601 -1.4615zm4.9898 -2.6026l-1.3213 4.1266 3.2205 0c0.5034,0.0013 0.9417,-0.0391 1.3152,-0.1211 0.3736,-0.0821 0.6783,-0.215 0.9162,-0.3986 0.238,-0.1837 0.4071,-0.4273 0.5053,-0.7308 0.0943,-0.3061 0.0865,-0.5653 -0.0255,-0.779 -0.1102,-0.2136 -0.3204,-0.3777 -0.6292,-0.4897 -0.3107,-0.1121 -0.7176,-0.1681 -1.2209,-0.1694l-0.7903 0 0.46 -1.438c-0.1416,-0.0196 -0.3145,-0.0352 -0.5171,-0.0456 -0.2025,-0.0118 -0.4325,-0.017 -0.6861,-0.017 -0.2477,0 -0.4758,0.0052 -0.6842,0.017 -0.2065,0.0104 -0.3873,0.026 -0.5426,0.0456zm5.9453 0l-1.2976 4.0641c0.1533,0.026 0.3265,0.0443 0.519,0.0521 0.1947,0.0078 0.415,0.0117 0.6607,0.0104 0.2516,0.0013 0.4796,-0.0026 0.6822,-0.0104 0.2045,-0.0078 0.3932,-0.0261 0.5681,-0.0521l1.2977 -4.0641c-0.1474,-0.0196 -0.3206,-0.0352 -0.521,-0.0456 -0.1986,-0.0118 -0.4228,-0.017 -0.6704,-0.017 -0.2538,0 -0.4838,0.0052 -0.6901,0.017 -0.2065,0.0104 -0.3893,0.026 -0.5486,0.0456zm-4.3057 2.4541l0.2714 0c0.1592,0 0.2733,0.026 0.3402,0.0794 0.0667,0.0534 0.0845,0.1355 0.049,0.2488 -0.0412,0.1159 -0.11,0.2006 -0.2065,0.2514 -0.0963,0.0521 -0.2239,0.0782 -0.3833,0.0769l-0.2713 0 0.2005 -0.6565zm12.0914 0.0234c0.0019,-0.0013 0.0255,-0.0404 0.0708,-0.1172 0.0451,-0.0769 0.1002,-0.185 0.1651,-0.3231 0.0649,-0.138 0.1278,-0.2983 0.1887,-0.4819 0.0864,-0.2658 0.0964,-0.5041 0.0276,-0.7139 -0.0688,-0.2084 -0.2045,-0.3868 -0.4071,-0.5327 -0.2004,-0.1459 -0.4581,-0.2579 -0.7707,-0.3335 -0.3106,-0.0768 -0.6684,-0.1159 -1.0675,-0.1159 -0.6075,-0.0026 -1.1462,0.0651 -1.62,0.2019 -0.4739,0.1368 -0.871,0.3543 -1.1954,0.6539 -0.3245,0.2983 -0.5643,0.6904 -0.7235,1.1762 -0.1553,0.4937 -0.1651,0.9119 -0.0255,1.2557 0.1376,0.3439 0.4108,0.6058 0.8218,0.7868 0.4108,0.1798 0.9476,0.2697 1.6101,0.271 0.4248,-0.0026 0.7864,-0.0235 1.0892,-0.0652 0.3028,-0.0404 0.5486,-0.0886 0.7392,-0.142 0.1908,-0.0534 0.3304,-0.1016 0.4209,-0.1419 0.0904,-0.0417 0.1337,-0.0626 0.1337,-0.0652 0.0117,-0.0885 0.0039,-0.1823 -0.0237,-0.28 -0.0255,-0.0977 -0.0649,-0.1941 -0.1159,-0.2892 -0.0532,-0.0951 -0.1122,-0.1837 -0.1771,-0.2644 -0.0668,-0.0821 -0.1336,-0.1498 -0.2024,-0.2058 -0.0019,0.0013 -0.0315,0.0104 -0.0886,0.0286 -0.0588,0.0196 -0.1394,0.0404 -0.2418,0.0651 -0.1022,0.0248 -0.2221,0.0456 -0.3557,0.0652 -0.1357,0.0182 -0.2792,0.0273 -0.4346,0.0286 -0.1809,0.0013 -0.3323,-0.0091 -0.4541,-0.0325 -0.12,-0.0235 -0.2085,-0.0691 -0.2635,-0.1355 -0.0569,-0.0664 -0.0767,-0.1641 -0.0609,-0.2931l2.9609 0zm-1.7223 -1.0864c-0.0118,0.0391 -0.0236,0.0782 -0.0374,0.116 -0.0118,0.039 -0.0275,0.0755 -0.0452,0.1107l-0.9438 0c0.0748,-0.1733 0.1554,-0.31 0.2379,-0.409 0.0847,-0.099 0.1712,-0.1694 0.2596,-0.211 0.0885,-0.0417 0.1789,-0.0613 0.2693,-0.06 0.1259,0.0013 0.2104,0.043 0.2576,0.1238 0.0473,0.0807 0.0473,0.1915 0.002,0.3295zm11.5367 -1.0707l0 -0.3204c0,-0.0013 -0.0414,-0.0065 -0.122,-0.0157 -0.0806,-0.0104 -0.2025,-0.0208 -0.3657,-0.0312 -0.1631,-0.0091 -0.3657,-0.0144 -0.6094,-0.0157 -0.2458,0.0013 -0.4601,0.0066 -0.6468,0.0157 -0.1849,0.0104 -0.3284,0.0208 -0.4326,0.0312 -0.1041,0.0092 -0.1572,0.0144 -0.1592,0.0157l-1.8639 5.8148c0.002,0.0013 0.0492,0.0065 0.1455,0.0156 0.0963,0.0104 0.234,0.0208 0.413,0.0313 0.1769,0.0091 0.3873,0.0143 0.633,0.0156 0.2457,-0.0013 0.46,-0.0065 0.6468,-0.0156 0.1848,-0.0105 0.3284,-0.0209 0.4325,-0.0313 0.1043,-0.0091 0.1573,-0.0143 0.1593,-0.0156l0.637 -2.0008c0.1238,0.1224 0.2891,0.2175 0.4993,0.2865 0.2104,0.0678 0.4679,0.103 0.7748,0.1043 0.2575,0.0013 0.5051,-0.0157 0.743,-0.0521 0.238,-0.0352 0.462,-0.0964 0.6744,-0.1837 0.2104,-0.086 0.4071,-0.2058 0.5859,-0.3569 0.1789,-0.1511 0.3402,-0.3413 0.4816,-0.5719 0.1416,-0.2305 0.2616,-0.5067 0.3579,-0.8284 0.1337,-0.4546 0.1908,-0.835 0.173,-1.1398 -0.0177,-0.3035 -0.0963,-0.5445 -0.2359,-0.7229 -0.1416,-0.1772 -0.3283,-0.3035 -0.5623,-0.3791 -0.2339,-0.0755 -0.5014,-0.1133 -0.8022,-0.1107 -0.2083,0.0013 -0.4069,0.0247 -0.5957,0.069 -0.1867,0.0443 -0.3616,0.1016 -0.523,0.172 -0.1631,0.069 -0.3086,0.1432 -0.4383,0.2201l0 0zm0.4483 1.7038c-0.0708,0.2175 -0.1377,0.3908 -0.2045,0.5223 -0.0649,0.1303 -0.1298,0.2293 -0.1967,0.2944 -0.0669,0.0652 -0.1336,0.1095 -0.2063,0.1303 -0.0708,0.0221 -0.1475,0.0313 -0.2301,0.03 -0.0905,-0.0013 -0.1613,-0.017 -0.2123,-0.0495 -0.0512,-0.0326 -0.0845,-0.0743 -0.1043,-0.1264 -0.0196,-0.0521 -0.0275,-0.1068 -0.0236,-0.1667 0.004,-0.0599 0.0157,-0.1173 0.0334,-0.1733l0.3186 -1.0238c0.063,-0.1368 0.1475,-0.2371 0.2575,-0.3022 0.1082,-0.0652 0.2241,-0.0977 0.3441,-0.0964 0.1003,-0.0013 0.1809,0.013 0.2399,0.0417 0.059,0.0286 0.0963,0.0781 0.1159,0.1485 0.0178,0.0703 0.0158,0.1693 -0.0059,0.2944 -0.0216,0.125 -0.0629,0.2839 -0.1257,0.4767l0 0zm8.4343 0.4533c0.0019,-0.0013 0.0255,-0.0404 0.0707,-0.1172 0.0452,-0.0769 0.1003,-0.185 0.1652,-0.3231 0.0649,-0.138 0.1278,-0.2983 0.1886,-0.4819 0.0865,-0.2658 0.0965,-0.5041 0.0277,-0.7139 -0.0689,-0.2084 -0.2046,-0.3868 -0.4071,-0.5327 -0.2005,-0.1459 -0.4581,-0.2579 -0.7707,-0.3335 -0.3106,-0.0768 -0.6685,-0.1159 -1.0675,-0.1159 -0.6075,-0.0026 -1.1462,0.0651 -1.62,0.2019 -0.4739,0.1368 -0.871,0.3543 -1.1954,0.6539 -0.3245,0.2983 -0.5643,0.6904 -0.7236,1.1762 -0.1553,0.4937 -0.1651,0.9119 -0.0255,1.2557 0.1377,0.3439 0.4109,0.6058 0.8219,0.7868 0.4108,0.1798 0.9475,0.2697 1.6101,0.271 0.4247,-0.0026 0.7864,-0.0235 1.0892,-0.0652 0.3027,-0.0404 0.5486,-0.0886 0.7392,-0.142 0.1908,-0.0534 0.3304,-0.1016 0.4208,-0.1419 0.0904,-0.0417 0.1338,-0.0626 0.1338,-0.0652 0.0117,-0.0885 0.0039,-0.1823 -0.0237,-0.28 -0.0256,-0.0977 -0.0649,-0.1941 -0.116,-0.2892 -0.0531,-0.0951 -0.1121,-0.1837 -0.177,-0.2644 -0.0669,-0.0821 -0.1336,-0.1498 -0.2024,-0.2058 -0.002,0.0013 -0.0316,0.0104 -0.0886,0.0286 -0.0589,0.0196 -0.1395,0.0404 -0.2418,0.0651 -0.1022,0.0248 -0.2222,0.0456 -0.3557,0.0652 -0.1357,0.0182 -0.2793,0.0273 -0.4346,0.0286 -0.181,0.0013 -0.3323,-0.0091 -0.4541,-0.0325 -0.12,-0.0235 -0.2085,-0.0691 -0.2636,-0.1355 -0.0569,-0.0664 -0.0766,-0.1641 -0.0608,-0.2931l2.9609 0zm-1.7223 -1.0864c-0.0118,0.0391 -0.0236,0.0782 -0.0375,0.116 -0.0117,0.039 -0.0274,0.0755 -0.0451,0.1107l-0.9438 0c0.0747,-0.1733 0.1553,-0.31 0.2379,-0.409 0.0847,-0.099 0.1711,-0.1694 0.2596,-0.211 0.0884,-0.0417 0.1788,-0.0613 0.2693,-0.06 0.1258,0.0013 0.2104,0.043 0.2576,0.1238 0.0472,0.0807 0.0472,0.1915 0.002,0.3295zm1.8992 2.7355l8.6113 0 1.3212 -4.1266c-0.0019,-0.0013 -0.0511,-0.0065 -0.1494,-0.0157 -0.0984,-0.0104 -0.2378,-0.0208 -0.4169,-0.0312 -0.1788,-0.0091 -0.3912,-0.0144 -0.6369,-0.0157 -0.2537,0.0013 -0.4698,0.0066 -0.6528,0.0157 -0.1828,0.0104 -0.3243,0.0208 -0.4245,0.0312 -0.0985,0.0092 -0.1475,0.0144 -0.1495,0.0157l-0.932 2.923 -0.6606 0 0.932 -2.923c-0.002,-0.0013 -0.0512,-0.0065 -0.1494,-0.0157 -0.0983,-0.0104 -0.2379,-0.0208 -0.4169,-0.0312 -0.1789,-0.0091 -0.3912,-0.0144 -0.6369,-0.0157 -0.2536,0.0013 -0.4699,0.0066 -0.6528,0.0157 -0.1828,0.0104 -0.3244,0.0208 -0.4246,0.0312 -0.0984,0.0092 -0.1475,0.0144 -0.1494,0.0157l-0.932 2.923 -0.6605 0 0.9318 -2.923c-0.0019,-0.0013 -0.0511,-0.0065 -0.1494,-0.0157 -0.0982,-0.0104 -0.2379,-0.0208 -0.4169,-0.0312 -0.1788,-0.0091 -0.3912,-0.0144 -0.6369,-0.0157 -0.2536,0.0013 -0.4699,0.0066 -0.6528,0.0157 -0.1828,0.0104 -0.3243,0.0208 -0.4246,0.0312 -0.0984,0.0092 -0.1474,0.0144 -0.1494,0.0157l-1.3212 4.1266zm15.2881 -1.6491c0.002,-0.0013 0.0255,-0.0404 0.0708,-0.1172 0.0451,-0.0769 0.1002,-0.185 0.1651,-0.3231 0.0649,-0.138 0.1279,-0.2983 0.1887,-0.4819 0.0865,-0.2658 0.0964,-0.5041 0.0276,-0.7139 -0.0688,-0.2084 -0.2045,-0.3868 -0.4071,-0.5327 -0.2004,-0.1459 -0.458,-0.2579 -0.7706,-0.3335 -0.3106,-0.0768 -0.6685,-0.1159 -1.0676,-0.1159 -0.6075,-0.0026 -1.1462,0.0651 -1.6199,0.2019 -0.474,0.1368 -0.8711,0.3543 -1.1954,0.6539 -0.3245,0.2983 -0.5644,0.6904 -0.7236,1.1762 -0.1553,0.4937 -0.1651,0.9119 -0.0255,1.2557 0.1376,0.3439 0.4108,0.6058 0.8218,0.7868 0.4109,0.1798 0.9476,0.2697 1.6102,0.271 0.4247,-0.0026 0.7863,-0.0235 1.0891,-0.0652 0.3028,-0.0404 0.5486,-0.0886 0.7393,-0.142 0.1908,-0.0534 0.3304,-0.1016 0.4208,-0.1419 0.0904,-0.0417 0.1337,-0.0626 0.1337,-0.0652 0.0118,-0.0885 0.0039,-0.1823 -0.0237,-0.28 -0.0255,-0.0977 -0.0649,-0.1941 -0.1159,-0.2892 -0.0531,-0.0951 -0.1122,-0.1837 -0.1771,-0.2644 -0.0668,-0.0821 -0.1335,-0.1498 -0.2024,-0.2058 -0.0019,0.0013 -0.0315,0.0104 -0.0886,0.0286 -0.0588,0.0196 -0.1394,0.0404 -0.2417,0.0651 -0.1022,0.0248 -0.2222,0.0456 -0.3558,0.0652 -0.1357,0.0182 -0.2792,0.0273 -0.4345,0.0286 -0.181,0.0013 -0.3324,-0.0091 -0.4542,-0.0325 -0.12,-0.0235 -0.2084,-0.0691 -0.2635,-0.1355 -0.0569,-0.0664 -0.0767,-0.1641 -0.0608,-0.2931l2.9608 0zm-1.7223 -1.0864c-0.0118,0.0391 -0.0235,0.0782 -0.0374,0.116 -0.0118,0.039 -0.0275,0.0755 -0.0452,0.1107l-0.9437 0c0.0747,-0.1733 0.1553,-0.31 0.2378,-0.409 0.0847,-0.099 0.1712,-0.1694 0.2596,-0.211 0.0885,-0.0417 0.1789,-0.0613 0.2693,-0.06 0.1259,0.0013 0.2104,0.043 0.2576,0.1238 0.0473,0.0807 0.0473,0.1915 0.002,0.3295zm4.813 1.2115l0.8965 0 -0.46 1.4615c0,0.0013 0.0392,0.0065 0.1218,0.0156 0.0825,0.0104 0.2123,0.0208 0.3892,0.03 0.1751,0.0104 0.4012,0.0156 0.6803,0.0169 0.287,-0.0013 0.521,-0.0065 0.7039,-0.0169 0.1828,-0.0092 0.3185,-0.0196 0.405,-0.03 0.0865,-0.0091 0.1298,-0.0143 0.1298,-0.0156l1.2976 -4.0641c-0.002,-0.0013 -0.0532,-0.0065 -0.1534,-0.0157 -0.1022,-0.0104 -0.2418,-0.0208 -0.4208,-0.0312 -0.1769,-0.0091 -0.3834,-0.0144 -0.6173,-0.0157 -0.2457,0.0013 -0.4601,0.0066 -0.6468,0.0157 -0.1849,0.0104 -0.3284,0.0208 -0.4325,0.0312 -0.1042,0.0092 -0.1573,0.0144 -0.1593,0.0157l-0.4482 1.4224 -0.8966 0 0.4483 -1.4224c-0.002,-0.0013 -0.0512,-0.0065 -0.1494,-0.0157 -0.0983,-0.0104 -0.2359,-0.0208 -0.413,-0.0312 -0.1788,-0.0091 -0.3873,-0.0144 -0.6291,-0.0157 -0.2594,0.0013 -0.4836,0.0066 -0.6665,0.0157 -0.1847,0.0104 -0.3263,0.0208 -0.4246,0.0312 -0.0964,0.0092 -0.1474,0.0144 -0.1474,0.0157l-1.2976 4.0641c0,0.0013 0.0392,0.0065 0.1218,0.0156 0.0826,0.0104 0.2124,0.0208 0.3893,0.03 0.175,0.0104 0.4011,0.0156 0.6802,0.0169 0.2675,-0.0013 0.4936,-0.0065 0.6783,-0.0169 0.1829,-0.0092 0.3225,-0.0196 0.4169,-0.03 0.0963,-0.0091 0.1435,-0.0143 0.1435,-0.0156l0.4601 -1.4615zm8.4933 -2.6026l-1.0262 1.1801c-0.1181,0.1368 -0.2361,0.2762 -0.352,0.4169 -0.118,0.1393 -0.2281,0.2735 -0.3302,0.4025 -0.1043,0.1276 -0.1948,0.2422 -0.2754,0.3438 -0.0786,0.1003 -0.1415,0.1811 -0.1888,0.2397 -0.0451,0.0586 -0.0688,0.0886 -0.0688,0.0899l-0.0706 0c0.0019,-0.0013 0.0235,-0.0326 0.0686,-0.0925 0.0453,-0.0599 0.1043,-0.142 0.1751,-0.2462 0.0708,-0.1055 0.1475,-0.224 0.2281,-0.3582 0.0806,-0.1342 0.1573,-0.2761 0.23,-0.4259 0.0728,-0.1485 0.1337,-0.2983 0.1828,-0.4481l0.3539 -1.102c0,-0.0013 -0.0492,-0.0065 -0.1455,-0.0157 -0.0963,-0.0104 -0.2339,-0.0208 -0.4168,-0.0312 -0.1828,-0.0091 -0.405,-0.0144 -0.6645,-0.0157 -0.2458,0.0013 -0.458,0.0066 -0.637,0.0157 -0.1789,0.0104 -0.3185,0.0208 -0.4168,0.0312 -0.0984,0.0092 -0.1474,0.0144 -0.1494,0.0157l-1.2976 4.0641c-0.0059,0.0065 0.0885,0.0169 0.285,0.0338 0.1947,0.017 0.4935,0.0261 0.8946,0.0287 0.2635,-0.0013 0.4896,-0.0065 0.6763,-0.0169 0.1849,-0.0092 0.3263,-0.0196 0.4247,-0.03 0.0983,-0.0091 0.1495,-0.0143 0.1495,-0.0156l1.0144 -1.1411c0.1749,-0.2006 0.3363,-0.3921 0.4857,-0.5744 0.1494,-0.1824 0.2791,-0.3452 0.3912,-0.4872 0.11,-0.1433 0.1985,-0.2566 0.2614,-0.34 0.063,-0.0834 0.0965,-0.1264 0.1004,-0.1303l0.0706 0c-0.0039,0.0026 -0.0274,0.0352 -0.0745,0.0964 -0.0453,0.0626 -0.1024,0.1459 -0.1732,0.2514 -0.0727,0.1055 -0.1474,0.2267 -0.2261,0.3622 -0.0806,0.1354 -0.1572,0.2774 -0.23,0.4272 -0.0727,0.1498 -0.1317,0.2996 -0.1808,0.4494l-0.3422 1.0864c-0.0019,0.0013 0.0375,0.0065 0.12,0.0156 0.0806,0.0104 0.2124,0.0208 0.3932,0.03 0.1828,0.0104 0.4247,0.0156 0.7255,0.0169 0.2595,-0.0013 0.4777,-0.0065 0.6546,-0.0169 0.1771,-0.0092 0.3107,-0.0196 0.4012,-0.03 0.0904,-0.0091 0.1356,-0.0143 0.1356,-0.0156l1.2977 -4.0641c0,-0.0013 -0.0433,-0.0065 -0.1318,-0.0157 -0.0865,-0.0104 -0.2202,-0.0208 -0.3971,-0.0312 -0.179,-0.0091 -0.4031,-0.0144 -0.6744,-0.0157 -0.23,0.0013 -0.4404,0.0066 -0.6292,0.0157 -0.1867,0.0104 -0.3361,0.0208 -0.4483,0.0312 -0.112,0.0092 -0.171,0.0144 -0.1729,0.0157zm5.1904 2.7901l0.1888 0 -0.4012 1.274c0.1357,0.0195 0.3008,0.0351 0.4955,0.0456 0.1946,0.0117 0.4187,0.0169 0.6725,0.0169 0.2496,0 0.4796,-0.0052 0.6881,-0.0169 0.2104,-0.0105 0.3892,-0.0261 0.5386,-0.0456l1.3212 -4.1267 -3.1968 0c-0.5151,0.0013 -0.9615,0.06 -1.337,0.1759 -0.3755,0.1146 -0.6783,0.2774 -0.9122,0.4872 -0.234,0.211 -0.3971,0.4585 -0.4875,0.7437 -0.059,0.1837 -0.0826,0.3478 -0.0728,0.4898 0.0098,0.1407 0.0532,0.2671 0.1298,0.3752 0.0747,0.1094 0.1828,0.2071 0.3205,0.2918l-1.5808 1.5631c0.1081,0.0156 0.2222,0.0273 0.3422,0.0364 0.1198,0.0092 0.2516,0.0157 0.3971,0.0196 0.1455,0.0052 0.3126,0.0065 0.4993,0.0065 0.2753,-0.0013 0.5112,-0.0078 0.7098,-0.0195 0.1965,-0.0131 0.3657,-0.0274 0.5052,-0.043l1.1797 -1.274zm0.4836 -1.8054l0.2831 0 -0.2476 0.7972 -0.2832 0c-0.1376,0 -0.2398,-0.0338 -0.3028,-0.1003 -0.0629,-0.0664 -0.0727,-0.1654 -0.0274,-0.2983 0.049,-0.1394 0.1218,-0.241 0.2221,-0.3048 0.1003,-0.0638 0.2183,-0.0951 0.3558,-0.0938z"/>
 </g>
</svg>
