<?xml version="1.0" encoding="utf-8"?>
<!-- Generator: Adobe Illustrator 19.1.0, SVG Export Plug-In . SVG Version: 6.00 Build 0)  -->
<svg version="1.1" id="Слой_1" xmlns="http://www.w3.org/2000/svg" xmlns:xlink="http://www.w3.org/1999/xlink" x="0px" y="0px"
	 viewBox="0 0 453.5 226.8" style="enable-background:new 0 0 453.5 226.8;" xml:space="preserve">
<style type="text/css">
	.st0{fill-rule:evenodd;clip-rule:evenodd;fill:#3C5D75;}
    .st1{fill:#3C5D75;stroke:#FFFFFF;stroke-width:0.216;stroke-linecap:round;stroke-linejoin:round;stroke-miterlimit:5;}
    .st2{font-family:'ArialMT';}
    .st3{font-size:66.3168px;}
    .st4{fill:#3C5D75;}
    .st5{font-size:75.583px;}
    .st6{font-size:63.9028px;}
    .st7{fill-rule:evenodd;clip-rule:evenodd;fill:#86A9C3;}
    .st8{font-size:22.1545px;}
</style>
<path class="st0" d="M221.8,82.4c35.9-2,71.1-2.8,106-2.9c-33.9,1.5-68.1,3.8-102.6,6.7C224.2,85,223,83.7,221.8,82.4z"/>
<path class="st0" d="M435,184c3.1,1.8,5,3.6,4,5.3c-69.9,0-139.7,0-209.6,0c-34.4,0-66.9-0.8-104-4.7c-40-4.2-150.9-25.6-118.1-60.1
	c9.9-10.3,35-18.5,73.4-24.9c3.3-0.5,6.6-1,9.9-1.4c0.5,2.2,1.3,4.4,2.5,6.7c-4.8,0.7-9.7,1.5-14.5,2.3
	c-39.4,8.8-60.8,21.3-23.4,45.5c70.4,26,152.7,28.5,216.6,31.4C326.2,184,380.6,184,435,184z"/>
<path class="st0" d="M215.6,111c-2,3.4-5.3,6.6-9.7,9.4c-0.7,4.6-2.1,9.1-4.2,13.3c2.7-1.6,4.9-3.4,6.6-5.2c-1,1.5-2,3-3.1,4.5
	c-1.4,1-2.9,1.9-4.6,2.7c-0.7,1.2-1.5,2.4-2.3,3.5h0l-0.1,0h0h0l-1.3,0c0.4-0.7,0.8-1.5,1.2-2.3c-1.8,0.8-3.8,1.6-5.9,2.3
	c-1.3,0.1-2.5,0.1-3.8,0.2c3.9-1.2,7.4-2.6,10.5-4.1c1.9-4.2,3.1-8.5,3.8-12.9c-6.3,3.4-14.2,6.1-23.2,8c-0.2,3.1-0.5,6.2-0.9,9.3
	l-0.3,0l-3.8,0l-0.1,0l-0.1,0c0.3-2.9,0.5-5.7,0.7-8.5c-6.7,1.1-13.8,1.7-21.3,1.7c-2.9,0-5.8-0.1-8.6-0.3c0,2,0,4,0.1,6l-5-0.4
	l-0.2,0c0-2-0.1-4-0.1-6c-9.8-1-18.8-3-26.4-5.8c0.3,3,0.8,5.9,1.5,8.8l-0.2,0l-0.1,0l-0.1,0l-0.1,0l-2.8-0.4l-0.1,0l-0.1,0l-0.1,0
	c-0.9-3.2-1.6-6.5-2-9.8c-6.6-2.9-11.9-6.4-15.4-10.3c0.7,3.6,1.6,7.2,3,10.9c-1.1-2.1-2.1-4.3-3-6.5c-0.6-2.1-1.1-4.2-1.5-6.3
	c-0.3-0.5-0.7-1-1-1.5c-0.3-1.1-0.5-2.2-0.7-3.4c0.4,0.7,0.8,1.5,1.2,2.2c-0.7-5-0.7-9.9-0.1-14.5c-0.9-1.6-1.5-3.2-1.8-4.8
	c0.1-0.7,0.2-1.4,0.3-2.1c0.4,1.5,1,2.9,1.9,4.3c0.8-4.5,2.1-8.8,4-12.9c-1.1-1.9-1.6-4-1.6-6.1c0-0.2,0-0.4,0-0.6
	c0.4-0.9,0.8-1.9,1.3-2.8c0,0.3,0,0.6,0,0.9c0,2.1,0.5,4.1,1.6,6.1c2.1-4.1,4.8-8,7.8-11.6c-0.6-1.3-0.9-2.7-0.9-4.1
	c0-3.5,2-6.8,5.6-9.7c-1.4,2.9-3.7,5-3.7,8.5c0,1.2,0.2,2.3,0.7,3.4c3.3-3.6,7-6.8,11.1-9.6c-0.7-1.3-1.1-2.6-1.1-3.9
	c0-0.9,0.1-1.7,0.4-2.5c-2.7,1.5-5.4,3.2-8,5.2c0.2-0.4,0.5-0.8,0.7-1.3c2.5-2,5.1-3.7,7.7-5.1c0.3-0.5,0.6-1.1,1-1.6
	c1.1-0.7,2.2-1.3,3.3-1.9c-0.7,0.7-1.2,1.4-1.7,2.2c4.5-2.2,9.3-3.7,14.2-4.4c1.2-1.1,2.9-2.1,5-2.9c-2.4-0.1-5,0.1-7.7,0.8
	c0.8-0.3,1.6-0.6,2.5-0.8c2.3-0.4,4.4-0.5,6.4-0.4c2.6-0.8,5.6-1.4,8.9-1.7c-0.2-0.2-0.4-0.4-0.6-0.6c0.3,0,0.6,0,0.9-0.1
	c0.3,0.2,0.4,0.4,0.6,0.6c0.9,0,1-0.1,2.7-0.1c1.8,0,5.2,0.2,7.6,0.6c0.7-0.2,1.3-0.4,1.8-0.5c0.8,0.1,1.6,0.2,2.3,0.4
	c-0.8,0.1-1.6,0.2-2.5,0.5c2.9,0.6,5.4,1.5,7.3,2.7c3.3,0.2,6.7,0.7,9.7,1.3c1,0.4,1.9,0.9,2.9,1.3c-3.8-1.1-7.6-1.7-11.5-2
	c1.6,1.1,2.6,2.4,2.8,3.8c4.7,1.3,9.3,3.2,13.6,5.5l0-0.2c0-2.1-1-4.2-2.8-6c1.1,0.6,2.2,1.3,3.3,1.9c1.2,1.7,1.9,3.4,1.9,5.3
	c0,0.1,0,0.3,0,0.4c3.8,2.3,7.3,5,10.5,8c-0.6-2.3-2.1-4.4-3.3-6.5c3.1,2.6,5,5.5,5.3,8.6c3.2,3.4,6.1,7.1,8.5,11.1
	c0-0.2,0-0.4,0-0.7c0-0.3,0-0.6,0-0.9c0.5,0.9,0.9,1.9,1.3,2.8c0,0.2,0,0.4,0,0.6c0,0.2,0,0.3,0,0.5c0.7,1.4,1.4,2.8,2,4.3
	c1.9,5.8,2.9,11.9,2.9,18.3c0,0.6,0,1.2,0,1.8c-0.1-2.1-0.4-4.2-0.8-6.3c-1.4,4.5-5.1,8.7-10.5,12.3c0.6,4.6,0.7,9.1,0.2,13.6
	c4.8-3.1,8.2-6.7,10.1-10.5C216.1,108.8,215.8,109.9,215.6,111L215.6,111z M174,45.4c-0.3,1.3-1.4,2.6-3,3.7
	c3.8,2.4,7.4,5.4,10.8,8.7c2.9-1.9,4.8-4,5.5-6.4C183.2,49,178.8,47,174,45.4L174,45.4z M189.7,52.8c-0.8,2.5-2.9,4.8-6,6.9
	c3.4,3.6,6.5,7.5,9.3,11.7c4.4-2.8,7.2-6,7.7-9.6C197.5,58.4,193.8,55.4,189.7,52.8L189.7,52.8z M202.5,63.6
	c-0.8,3.6-3.7,6.9-8.2,9.7c2.6,4.1,4.8,8.4,6.6,12.8c4.9-3.2,8.3-7,9.6-11C208.3,71,205.6,67.1,202.5,63.6L202.5,63.6z M211.8,77.6
	c-1.3,4.1-4.8,7.8-9.9,11.1c1.6,4.3,2.8,8.7,3.6,13c5.2-3.4,8.8-7.3,10.5-11.5C215.1,85.8,213.7,81.6,211.8,77.6L211.8,77.6z
	 M171.3,43.1c-0.2-1.2-1-2.2-2.3-3.2c-3.9-0.1-7.8,0.1-11.8,0.6c2.9-1,6.7-1.4,10.8-1.3c-1.6-0.9-3.7-1.7-6.1-2.3
	c-2.8,0.8-5.7,2.2-7.4,3.5c1.3-1.5,3.7-2.9,5.9-3.8c-2.1-0.4-5.2-0.6-6.8-0.6c-1.6,0-1.8,0-2.5,0.1c0.8,1.2,1.8,2.8,2.1,4.7
	c-0.8-1.8-1.8-3.3-3-4.6c-2.8,0.2-5.4,0.7-7.5,1.5c3.6,0.4,6.7,1.4,9.5,3.1c-3.4-1.3-6.8-2.3-10.6-2.7c-1.8,0.7-3.2,1.6-4.2,2.5
	c3.8-0.3,7.7-0.2,11.8,0.4c-4.4,0-8.6,0.2-12.7,0.8c-0.3,0.6-0.5,1.2-0.5,1.8c0,0.5,0.1,1,0.3,1.5c4.3-1.5,8.7-2.5,13.2-3.1
	c-4.4,1.1-8.6,2.5-12.6,4.1c0.9,1.2,2.6,2.3,4.7,3.1c2.8-2.2,5.7-4.3,8.8-6.1c-2.9,2-5.6,4.1-8.2,6.3c2.1,0.8,4.7,1.3,7.6,1.6
	c1-2.9,2.1-5.8,3.3-8.7c-0.7,2.9-1.3,5.9-1.9,8.8c0.8,0,1.6,0.1,2.4,0.1c2,0,4-0.1,5.8-0.4c-1.3-2.6-2.7-5.2-4.3-7.8
	c1.8,2.5,3.6,5.1,5.2,7.7c2.9-0.5,5.4-1.3,7.3-2.4c-3.8-2.6-7.7-4.6-11.6-6c4.3,1.2,8.6,3,12.6,5.4c1.4-0.9,2.2-2,2.5-3.2
	c-5.1-1.5-10.6-2.5-16.3-3C160.4,41.4,165.9,41.9,171.3,43.1L171.3,43.1z M169.7,49.8c-2.2,1.1-5,2.1-8.2,2.6
	c2.1,3.5,4.1,7,5.8,10.7c4.9-1,9.2-2.4,12.6-4.3C176.6,55.5,173.2,52.4,169.7,49.8L169.7,49.8z M181.7,60.9
	c-3.6,1.9-8.2,3.5-13.4,4.5c1.9,4.2,3.6,8.5,5.1,12.9c6.7-1.3,12.6-3.2,17.2-5.6C187.9,68.5,184.9,64.5,181.7,60.9L181.7,60.9z
	 M191.8,74.7c-4.7,2.5-10.8,4.5-17.7,5.8c1.4,4.7,2.6,9.5,3.5,14.3c8-1.7,15-4.1,20.5-7.2C196.4,83.2,194.3,78.8,191.8,74.7
	L191.8,74.7z M199.1,90.2c-5.7,3.1-12.8,5.5-21.1,7.2c0.8,4.6,1.3,9.3,1.5,14.1c8.9-1.9,16.7-4.6,22.9-8.1
	C201.8,99,200.7,94.6,199.1,90.2L199.1,90.2z M202.9,106.5c-6.2,3.5-14.1,6.4-23.2,8.3c0.1,4.4,0.1,8.9-0.2,13.5
	c9.1-1.8,17.1-4.6,23.4-8.1C203.5,115.6,203.4,111,202.9,106.5L202.9,106.5z M160.3,52.6c-2.1,0.3-4.3,0.5-6.7,0.5
	c-0.9,0-1.9,0-2.8-0.1c-0.7,3.8-1.4,7.5-1.9,11.2c1.5,0.1,3.1,0.1,4.7,0.1c4,0,7.9-0.3,11.4-0.9C163.6,59.8,162,56.2,160.3,52.6
	L160.3,52.6z M165.9,65.8c-3.8,0.6-8,1-12.3,1c-1.7,0-3.4-0.1-5.1-0.2c-0.7,4.5-1.2,8.9-1.6,13.3c2.2,0.1,4.4,0.2,6.7,0.2
	c5.8,0,11.3-0.4,16.4-1.2C168.9,74.5,167.5,70.1,165.9,65.8L165.9,65.8z M170.6,81.2c-5.3,0.8-11,1.3-17,1.3c-2.4,0-4.7-0.1-6.9-0.2
	c-0.5,5-0.8,9.9-1.1,14.8c2.6,0.2,5.3,0.3,8,0.3c7,0,13.7-0.6,19.8-1.6C172.7,90.8,171.8,85.9,170.6,81.2L170.6,81.2z M173.8,98.2
	c-6.3,1-13.1,1.6-20.2,1.6c-2.8,0-5.5-0.1-8.1-0.2c-0.2,4.8-0.4,9.6-0.4,14.3c2.8,0.2,5.7,0.3,8.6,0.3c7.5,0,14.7-0.6,21.4-1.7
	C174.8,107.6,174.4,102.9,173.8,98.2L173.8,98.2z M175.1,115.6c-6.7,1.1-14,1.7-21.5,1.7c-2.9,0-5.8-0.1-8.6-0.3c0,4.5,0,9,0,13.4
	c2.8,0.2,5.7,0.3,8.6,0.3c7.5,0,14.7-0.6,21.4-1.7C175.2,124.5,175.2,120,175.1,115.6L175.1,115.6z M149.2,52.9
	c-3.3-0.3-6.2-0.9-8.7-1.8c-3.3,3-6.2,6.3-8.9,9.7c4.1,1.5,8.9,2.7,14.3,3.2C146.8,60.3,147.9,56.6,149.2,52.9L149.2,52.9z
	 M145.3,66.4c-5.7-0.6-11-1.8-15.3-3.5c-2.9,3.9-5.4,8.1-7.6,12.4c5.7,2.1,12.6,3.6,20.2,4.4C143.3,75.2,144.2,70.8,145.3,66.4
	L145.3,66.4z M142.2,81.9c-7.8-0.8-15-2.4-20.8-4.5c-2.1,4.5-3.8,9-5.1,13.7c6.9,2.7,15.2,4.6,24.3,5.6
	C141,91.7,141.5,86.8,142.2,81.9L142.2,81.9z M140.4,99.1c-9.3-0.9-17.7-2.9-24.8-5.5c-1.1,4.6-1.9,9.2-2.4,13.8
	c7.6,2.9,16.6,5,26.5,6C139.9,108.7,140.1,103.9,140.4,99.1L140.4,99.1z M139.7,116.6c-10-1-19.1-3.2-26.7-6.1
	c-0.3,4.6-0.2,9.1,0.2,13.6c7.6,2.8,16.7,4.9,26.6,5.9C139.7,125.5,139.7,121.1,139.7,116.6L139.7,116.6z M139.7,50.8
	c-2.4-1-4.3-2.2-5.4-3.5c-4.6,2-8.8,4.4-12.7,7c1.8,2.3,4.8,4.3,8.7,6C133.1,56.8,136.3,53.7,139.7,50.8L139.7,50.8z M128.5,62.3
	c-4.1-1.8-7.3-4-9.3-6.4c-4.2,3-7.9,6.4-11.1,10c2.2,3.3,6.4,6.2,12.1,8.6C122.7,70.1,125.4,66.1,128.5,62.3L128.5,62.3z
	 M119.1,76.4c-5.8-2.4-10.1-5.4-12.5-8.8c-3,3.7-5.6,7.6-7.6,11.7c2.9,4,7.9,7.5,14.3,10.4C114.9,85.2,116.8,80.7,119.1,76.4
	L119.1,76.4z M112.5,92.4c-6.6-2.9-11.7-6.4-14.7-10.4c-1.8,4.2-3.1,8.5-3.8,12.9c3.4,4.2,8.7,8,15.6,11
	C110.2,101.3,111.1,96.8,112.5,92.4L112.5,92.4z M109.2,109c-7-3.1-12.4-7-15.6-11.4c-0.5,4.7-0.5,9.4,0.2,14.3
	c3.4,4.1,8.8,7.7,15.5,10.6C108.9,118.1,108.8,113.5,109.2,109L109.2,109z M120.6,52.7c4.1-2.6,8.5-4.8,13-6.6
	c-0.3-0.6-0.4-1.1-0.4-1.7c0-0.7,0.2-1.4,0.6-2.1c-4.7,0.9-9.3,2.2-13.7,4.3c-0.3,0.8-0.5,1.7-0.5,2.6
	C119.6,50.4,119.9,51.6,120.6,52.7L120.6,52.7z M102,132.8c1.1,0.2,2.2,0.4,3.2,0.6c-2.5-1.6-4.6-3.2-6.3-5
	C99.9,129.9,100.9,131.4,102,132.8z"/>
<text transform="matrix(1 0 0 1 216.2949 78.2324)"><tspan x="0" y="0" class="st1 st2 st3">Pro</tspan><tspan x="103.2" y="0" class="st4 st2 st5"> </tspan></text>
<text transform="matrix(1 0 0 1 211.3809 137.8154)" class="st4 st2 st6">Express</text>
<path class="st0" d="M77.6,126.8c-21.6-8.7-8.5-16.4,17.2-23.7c-24.1,7.2-33.1,14.1-18.8,20.6c30.4,10.6,64.8,17,105.9,16.5
	c80.2,2.1,86.1,11.8,100,20.8c-12.2-6.3-24.2-12.7-57.9-14.3C173.3,144.3,121.5,144.3,77.6,126.8z"/>
<path class="st7" d="M92.2,162.7c58.2,8.1,145,6.8,237.3,3.7c-144.1-1.6-348.7-19.7-260.7-57c-23.4,6.4-38.9,13.5-42,21.6
	C19.6,149.8,71.6,159.8,92.2,162.7z"/>
<text transform="matrix(1.5093 0 0 1 108.5288 207.9648)" class="st4 st2 st8">Рекламные   решения</text>
</svg>